<?xml version="1.0" encoding="utf-8"?>
<!-- Generator: Adobe Illustrator 24.0.1, SVG Export Plug-In . SVG Version: 6.00 Build 0)  -->
<svg version="1.1" id="图层_1" xmlns="http://www.w3.org/2000/svg" xmlns:xlink="http://www.w3.org/1999/xlink" x="0px" y="0px"
	 viewBox="0 0 670 178" style="enable-background:new 0 0 670 178;" xml:space="preserve">
<style type="text/css">
	.st0{fill:#0A2F50;}
	.st1{fill:#2297CD;}
	.st2{fill:#323433;}
	.st3{font-family:'HarmonyOS_Sans_SC_Medium';}
	.st4{font-size:73.0236px;}
	.st5{letter-spacing:6;}
	.st6{font-family:'HarmonyOS_Sans_SC';}
	.st7{font-size:36.9739px;}
	.st8{letter-spacing:3;}
</style>
<g>
	<g>
		<path class="st0" d="M121.83,130.14c1.02,0.01,2-0.1,2.96-0.3l0.97-0.24c0.55-0.11,1.12-0.16,1.71-0.16
			c5,0.03,8.98,4.26,8.64,9.33l-0.02,0.21c-0.02,0.32-0.03,0.64,0,0.98c0.22,3.28,2.89,5.94,6.16,6.17c3.86,0.27,7.1-2.77,7.12-6.59
			c0.02-3.09-2.07-5.7-4.92-6.47c-0.53-0.14-1.07-0.19-1.62-0.2c0.14,0,0.27,0,0.41-0.01l-0.95-0.01c-4.59-0.28-8.22-4.11-8.19-8.76
			c0-0.69,0.1-1.36,0.25-2.01l0.65-1.79c0.33-1.16,0.51-2.38,0.52-3.64c0.05-7.68-6.28-13.92-14.03-13.68
			c-7.05,0.22-12.83,5.92-13.14,12.97C107.99,123.67,114.14,130.09,121.83,130.14z"/>
		<circle class="st1" cx="30.82" cy="79.84" r="20.06"/>
		<circle class="st1" cx="172.45" cy="155.15" r="17.44"/>
		<circle class="st1" cx="176.1" cy="34.72" r="12.21"/>
		<circle class="st1" cx="89.25" cy="34.72" r="13.95"/>
		<circle class="st0" cx="60.87" cy="103.82" r="10.46"/>
		<circle class="st0" cx="150.65" cy="120.83" r="7.85"/>
		<path class="st0" d="M197.4,54.27c-3,0-5.91,0.34-8.72,0.96l-2.85,0.74c-1.63,0.32-3.31,0.5-5.03,0.5
			c-14.74,0-26.58-12.4-25.67-27.34l0.05-0.61c0.06-0.94,0.06-1.9-0.01-2.88c-0.72-9.66-8.64-17.47-18.3-18.07
			c-11.41-0.71-20.88,8.33-20.88,19.59c0,9.11,6.21,16.77,14.63,18.98c1.56,0.41,3.17,0.55,4.79,0.55c-0.4,0.01-0.81,0.02-1.2,0.03
			h2.8c13.56,0.73,24.33,11.96,24.33,25.69c0,2.04-0.25,4.02-0.7,5.93l-1.88,5.29c-0.95,3.43-1.47,7.03-1.47,10.75
			c0,22.67,18.81,40.95,41.68,40.09c20.79-0.79,37.73-17.73,38.52-38.53C238.35,73.08,220.07,54.27,197.4,54.27z"/>
		<path class="st1" d="M107.19,75.73c-0.02,1.62,0.13,3.2,0.45,4.72l0.38,1.55c0.16,0.88,0.24,1.79,0.23,2.72
			c-0.12,7.96-6.92,14.26-14.98,13.64l-0.33-0.03c-0.51-0.04-1.03-0.05-1.55-0.02c-5.23,0.31-9.51,4.52-9.91,9.74
			c-0.48,6.16,4.33,11.35,10.41,11.44c4.92,0.08,9.11-3.22,10.37-7.75c0.23-0.84,0.32-1.71,0.34-2.58c0,0.22,0,0.44,0.01,0.65
			l0.02-1.51c0.51-7.32,6.66-13.04,14.08-12.93c1.1,0.02,2.17,0.17,3.2,0.43l2.84,1.06c1.84,0.54,3.78,0.85,5.8,0.88
			c12.25,0.19,22.28-9.82,22-22.18c-0.26-11.24-9.27-20.53-20.49-21.13C117.69,53.76,107.38,63.48,107.19,75.73z"/>
		<path class="st0" d="M82.24,54.47c-1.35-0.01-2.66,0.14-3.93,0.41l-1.29,0.33c-0.73,0.14-1.49,0.22-2.27,0.21
			c-6.63-0.04-11.93-5.65-11.48-12.37l0.03-0.27c0.03-0.42,0.03-0.86,0-1.3c-0.3-4.35-3.84-7.88-8.19-8.18
			c-5.13-0.35-9.42,3.69-9.44,8.76c-0.02,4.1,2.75,7.56,6.54,8.58c0.7,0.19,1.43,0.26,2.15,0.26c-0.18,0-0.37,0.01-0.54,0.01
			l1.26,0.01c6.1,0.36,10.92,5.44,10.88,11.62c-0.01,0.92-0.12,1.81-0.33,2.67l-0.86,2.38c-0.44,1.54-0.68,3.16-0.69,4.83
			c-0.06,10.2,8.36,18.48,18.65,18.15c9.36-0.3,17.03-7.88,17.43-17.24C100.62,63.04,92.44,54.52,82.24,54.47z"/>
	</g>
	<g>
		<text transform="matrix(1 0 0 1 262.7842 99.0234)" class="st2 st3 st4 st5">程序猿阿峰</text>
		<g>
			<text transform="matrix(1 0 0 1 284.1514 148.2012)" class="st2 st6 st7 st8">—aFeng Coding—</text>
		</g>
	</g>
</g>
</svg>
