<svg xmlns="http://www.w3.org/2000/svg" xmlns:xlink="http://www.w3.org/1999/xlink" width="276" height="55" viewBox="0 0 276 55">
  <defs>
    <clipPath id="clip-SPRK_default_preset_name_custom_1">
      <rect width="276" height="55"/>
    </clipPath>
  </defs>
  <g id="SPRK_default_preset_name_custom_1" data-name="SPRK_default_preset_name_custom – 1" clip-path="url(#clip-SPRK_default_preset_name_custom_1)">
    <rect width="276" height="55" fill="#fff"/>
    <g id="组_1" data-name="组 1" transform="translate(-20.537 -13)">
      <g id="IM-猪头" transform="translate(20.537 13)">
        <path id="路径_1" data-name="路径 1" d="M129.769,180.562a.489.489,0,0,1-.078-.271v0c0-11.579-12.022-27.91-31.624-27.91-19,0-31.624,15.779-31.624,27.91v0a.5.5,0,0,1-.078.271,12.4,12.4,0,0,0-2.154,6.829c0,10.743,13.7,19.452,33.856,19.452s33.856-8.709,33.856-19.452A12.4,12.4,0,0,0,129.769,180.562Z" transform="translate(-64.21 -152.38)" fill="#fdece2"/>
        <path id="路径_2" data-name="路径 2" d="M364.98,444.525a.37.37,0,0,0,.022-.038c.172-.33,2.736-5.016,10.182-4.955,7.355.06,9.86,4.4,10.078,4.808a.449.449,0,0,0,.036.057,6.089,6.089,0,0,1,.745,5.519c-1.129,3.134-3.787,3.874-6.09,3s-3.189-1.267-4.711-1.267a13.857,13.857,0,0,0-4.832,1.275,4.3,4.3,0,0,1-5.49-1.717A6.059,6.059,0,0,1,364.98,444.525Z" transform="translate(-341.298 -417.835)" fill="#d39a7b"/>
        <path id="路径_3" data-name="路径 3" d="M126.464,195.229a.379.379,0,0,0,.022-.038c.172-.33,2.736-5.016,10.182-4.954,7.355.06,9.86,4.4,10.078,4.808a.459.459,0,0,0,.036.057,6.09,6.09,0,0,1,.745,5.519c-1.129,3.134-3.787,3.874-6.09,3s-3.189-1.267-4.711-1.267a13.857,13.857,0,0,0-4.832,1.275,4.3,4.3,0,0,1-5.49-1.717A6.059,6.059,0,0,1,126.464,195.229Zm35.881-21.056.024.021a17.178,17.178,0,0,1,3.732,4.034c1.022,1.9,1.588,3.811-.3,6.062s-7.083,4.386-9.885,4.8-5.731.072-6.663-3.425.125-9.218,1.526-12.065a4.754,4.754,0,0,1,3.572-2.946.385.385,0,0,0,.073-.014c.261-.071,1.967-.413,5.316,1.631A22.585,22.585,0,0,1,162.346,174.173Zm-51.712,0-.024.021a17.177,17.177,0,0,0-3.732,4.034c-1.022,1.9-1.588,3.811.3,6.062s7.083,4.386,9.885,4.8,5.731.072,6.663-3.425-.125-9.218-1.526-12.065a4.754,4.754,0,0,0-3.572-2.946.386.386,0,0,1-.073-.014c-.261-.071-1.967-.413-5.316,1.631A22.582,22.582,0,0,0,110.633,174.173Z" transform="translate(-102.782 -169.199)" fill="#fabda9"/>
        <path id="路径_4" data-name="路径 4" d="M100.52,515.5h16.247v16.036H100.52Z" transform="translate(-97.776 -488.062)" fill="#fdece2"/>
        <path id="路径_5" data-name="路径 5" d="M109.281,522.871m-8.071,0a8.071,8.071,0,1,0,8.071-8.071A8.071,8.071,0,0,0,101.21,522.871Z" transform="translate(-98.414 -487.415)" fill="#fdece2"/>
        <path id="路径_6" data-name="路径 6" d="M110.261,523.851m-7.991,0a7.991,7.991,0,1,0,7.991-7.991,7.991,7.991,0,0,0-7.991,7.991Z" transform="translate(-99.394 -488.395)" fill="#fdebe1"/>
        <path id="路径_7" data-name="路径 7" d="M111.241,524.831m-7.911,0a7.911,7.911,0,1,0,7.911-7.911A7.911,7.911,0,0,0,103.33,524.831Z" transform="translate(-100.374 -489.375)" fill="#fdeae0"/>
        <path id="路径_8" data-name="路径 8" d="M112.221,525.811m-7.831,0a7.831,7.831,0,1,0,7.831-7.831A7.831,7.831,0,0,0,104.39,525.811Z" transform="translate(-101.354 -490.355)" fill="#fdeadf"/>
        <path id="路径_9" data-name="路径 9" d="M113.192,526.782m-7.752,0a7.752,7.752,0,1,0,7.752-7.752A7.752,7.752,0,0,0,105.44,526.782Z" transform="translate(-102.325 -491.326)" fill="#fde9de"/>
        <path id="路径_10" data-name="路径 10" d="M114.172,527.762m-7.672,0a7.672,7.672,0,1,0,7.672-7.672A7.672,7.672,0,0,0,106.5,527.762Z" transform="translate(-103.305 -492.306)" fill="#fde8dd"/>
        <path id="路径_11" data-name="路径 11" d="M115.152,528.742m-7.592,0a7.592,7.592,0,1,0,7.592-7.592A7.592,7.592,0,0,0,107.56,528.742Z" transform="translate(-104.284 -493.286)" fill="#fde7dc"/>
        <path id="路径_12" data-name="路径 12" d="M116.131,529.721m-7.511,0a7.511,7.511,0,1,0,7.511-7.512A7.511,7.511,0,0,0,108.62,529.721Z" transform="translate(-105.264 -494.265)" fill="#fde6db"/>
        <path id="路径_13" data-name="路径 13" d="M117.1,530.692m-7.432,0a7.432,7.432,0,1,0,7.432-7.432A7.432,7.432,0,0,0,109.67,530.692Z" transform="translate(-106.235 -495.236)" fill="#fde6da"/>
        <path id="路径_14" data-name="路径 14" d="M118.082,531.672m-7.352,0a7.352,7.352,0,1,0,7.352-7.352A7.352,7.352,0,0,0,110.73,531.672Z" transform="translate(-107.215 -496.216)" fill="#fde5d9"/>
        <path id="路径_15" data-name="路径 15" d="M119.062,532.652m-7.272,0a7.272,7.272,0,1,0,7.272-7.272A7.272,7.272,0,0,0,111.79,532.652Z" transform="translate(-108.195 -497.196)" fill="#fde4d8"/>
        <path id="路径_16" data-name="路径 16" d="M120.042,533.632m-7.192,0a7.192,7.192,0,1,0,7.192-7.192A7.192,7.192,0,0,0,112.85,533.632Z" transform="translate(-109.175 -498.176)" fill="#fde3d7"/>
        <path id="路径_17" data-name="路径 17" d="M121.013,534.6m-7.113,0a7.113,7.113,0,1,0,7.113-7.112A7.113,7.113,0,0,0,113.9,534.6Z" transform="translate(-110.145 -499.146)" fill="#fde2d6"/>
        <path id="路径_18" data-name="路径 18" d="M121.992,535.582m-7.032,0a7.032,7.032,0,1,0,7.032-7.032A7.032,7.032,0,0,0,114.96,535.582Z" transform="translate(-111.125 -500.126)" fill="#fde2d5"/>
        <path id="路径_19" data-name="路径 19" d="M122.972,536.562m-6.952,0a6.952,6.952,0,1,0,6.952-6.952A6.952,6.952,0,0,0,116.02,536.562Z" transform="translate(-112.105 -501.106)" fill="#fde1d4"/>
        <path id="路径_20" data-name="路径 20" d="M123.952,537.542m-6.872,0a6.872,6.872,0,1,0,6.872-6.872A6.872,6.872,0,0,0,117.08,537.542Z" transform="translate(-113.085 -502.086)" fill="#fde0d3"/>
        <path id="路径_21" data-name="路径 21" d="M124.923,538.513m-6.793,0a6.793,6.793,0,1,0,6.793-6.793A6.793,6.793,0,0,0,118.13,538.513Z" transform="translate(-114.056 -503.057)" fill="#fddfd2"/>
        <path id="路径_22" data-name="路径 22" d="M125.9,539.493m-6.713,0a6.713,6.713,0,1,0,6.713-6.713A6.713,6.713,0,0,0,119.19,539.493Z" transform="translate(-115.036 -504.037)" fill="#fcded1"/>
        <path id="路径_23" data-name="路径 23" d="M126.883,540.473m-6.633,0a6.633,6.633,0,1,0,6.633-6.633A6.633,6.633,0,0,0,120.25,540.473Z" transform="translate(-116.016 -505.017)" fill="#fcded0"/>
        <path id="路径_24" data-name="路径 24" d="M127.863,541.453m-6.553,0a6.553,6.553,0,1,0,6.553-6.553A6.553,6.553,0,0,0,121.31,541.453Z" transform="translate(-116.995 -505.997)" fill="#fcddcf"/>
        <path id="路径_25" data-name="路径 25" d="M128.842,542.432m-6.473,0a6.473,6.473,0,1,0,6.473-6.472A6.473,6.473,0,0,0,122.37,542.432Z" transform="translate(-117.975 -506.976)" fill="#fcdcce"/>
        <path id="路径_26" data-name="路径 26" d="M129.813,543.4m-6.393,0a6.393,6.393,0,1,0,6.393-6.393A6.393,6.393,0,0,0,123.42,543.4Z" transform="translate(-118.946 -507.947)" fill="#fcdbcd"/>
        <path id="路径_27" data-name="路径 27" d="M130.793,544.383m-6.313,0a6.313,6.313,0,1,0,6.313-6.313A6.313,6.313,0,0,0,124.48,544.383Z" transform="translate(-119.926 -508.927)" fill="#fcdacc"/>
        <path id="路径_28" data-name="路径 28" d="M131.773,545.363m-6.233,0a6.233,6.233,0,1,0,6.233-6.233A6.233,6.233,0,0,0,125.54,545.363Z" transform="translate(-120.906 -509.907)" fill="#fcdacb"/>
        <path id="路径_29" data-name="路径 29" d="M132.753,546.343m-6.153,0a6.153,6.153,0,1,0,6.153-6.153A6.153,6.153,0,0,0,126.6,546.343Z" transform="translate(-121.886 -510.887)" fill="#fcd9ca"/>
        <path id="路径_30" data-name="路径 30" d="M133.724,547.314m-6.074,0a6.074,6.074,0,1,0,6.074-6.074A6.074,6.074,0,0,0,127.65,547.314Z" transform="translate(-122.856 -511.858)" fill="#fcd8c9"/>
        <path id="路径_31" data-name="路径 31" d="M134.7,548.293m-5.993,0A5.993,5.993,0,1,0,134.7,542.3,5.993,5.993,0,0,0,128.71,548.293Z" transform="translate(-123.836 -512.837)" fill="#fcd7c8"/>
        <path id="路径_32" data-name="路径 32" d="M135.683,549.273m-5.913,0a5.913,5.913,0,1,0,5.913-5.913A5.913,5.913,0,0,0,129.77,549.273Z" transform="translate(-124.816 -513.817)" fill="#fcd6c7"/>
        <path id="路径_33" data-name="路径 33" d="M136.663,550.253m-5.833,0a5.833,5.833,0,1,0,5.833-5.833A5.833,5.833,0,0,0,130.83,550.253Z" transform="translate(-125.796 -514.797)" fill="#fcd6c6"/>
        <path id="路径_34" data-name="路径 34" d="M137.634,551.224m-5.754,0a5.754,5.754,0,1,0,5.754-5.754A5.754,5.754,0,0,0,131.88,551.224Z" transform="translate(-126.767 -515.768)" fill="#fcd5c5"/>
        <path id="路径_35" data-name="路径 35" d="M138.614,552.2m-5.674,0a5.674,5.674,0,1,0,5.674-5.674A5.674,5.674,0,0,0,132.94,552.2Z" transform="translate(-127.747 -516.748)" fill="#fcd4c4"/>
        <path id="路径_36" data-name="路径 36" d="M139.594,553.184m-5.594,0a5.594,5.594,0,1,0,5.594-5.594A5.594,5.594,0,0,0,134,553.184Z" transform="translate(-128.727 -517.728)" fill="#fcd3c3"/>
        <path id="路径_37" data-name="路径 37" d="M140.574,554.164m-5.514,0a5.514,5.514,0,1,0,5.514-5.514A5.514,5.514,0,0,0,135.06,554.164Z" transform="translate(-129.707 -518.708)" fill="#fcd2c2"/>
        <path id="路径_38" data-name="路径 38" d="M141.544,555.134m-5.434,0a5.434,5.434,0,1,0,5.434-5.434A5.434,5.434,0,0,0,136.11,555.134Z" transform="translate(-130.677 -519.678)" fill="#fcd2c1"/>
        <path id="路径_39" data-name="路径 39" d="M142.524,556.114m-5.354,0a5.354,5.354,0,1,0,5.354-5.354A5.354,5.354,0,0,0,137.17,556.114Z" transform="translate(-131.657 -520.658)" fill="#fcd1c0"/>
        <path id="路径_40" data-name="路径 40" d="M143.5,557.094m-5.274,0a5.274,5.274,0,1,0,5.274-5.274,5.274,5.274,0,0,0-5.274,5.274Z" transform="translate(-132.637 -521.638)" fill="#fcd0bf"/>
        <path id="路径_41" data-name="路径 41" d="M144.484,558.074m-5.194,0a5.194,5.194,0,1,0,5.194-5.194A5.194,5.194,0,0,0,139.29,558.074Z" transform="translate(-133.617 -522.618)" fill="#fccfbe"/>
        <path id="路径_42" data-name="路径 42" d="M145.455,559.045m-5.115,0a5.115,5.115,0,1,0,5.115-5.115A5.115,5.115,0,0,0,140.34,559.045Z" transform="translate(-134.588 -523.589)" fill="#fccebd"/>
        <path id="路径_43" data-name="路径 43" d="M146.435,560.025m-5.035,0a5.035,5.035,0,1,0,5.035-5.035A5.035,5.035,0,0,0,141.4,560.025Z" transform="translate(-135.567 -524.569)" fill="#fccebc"/>
        <path id="路径_44" data-name="路径 44" d="M147.414,561m-4.954,0a4.955,4.955,0,1,0,4.954-4.954A4.955,4.955,0,0,0,142.46,561Z" transform="translate(-136.547 -525.548)" fill="#fccdbb"/>
        <path id="路径_45" data-name="路径 45" d="M148.394,561.984m-4.874,0a4.874,4.874,0,1,0,4.874-4.874A4.874,4.874,0,0,0,143.52,561.984Z" transform="translate(-137.527 -526.528)" fill="#fcccba"/>
        <path id="路径_46" data-name="路径 46" d="M149.365,562.955m-4.8,0a4.8,4.8,0,1,0,4.8-4.8A4.8,4.8,0,0,0,144.57,562.955Z" transform="translate(-138.498 -527.499)" fill="#fccbb9"/>
        <path id="路径_47" data-name="路径 47" d="M150.345,563.935m-4.715,0a4.715,4.715,0,1,0,4.715-4.715A4.715,4.715,0,0,0,145.63,563.935Z" transform="translate(-139.478 -528.479)" fill="#fccab8"/>
        <path id="路径_48" data-name="路径 48" d="M151.325,564.915m-4.635,0a4.635,4.635,0,1,0,4.635-4.635A4.635,4.635,0,0,0,146.69,564.915Z" transform="translate(-140.458 -529.459)" fill="#fccab7"/>
        <path id="路径_49" data-name="路径 49" d="M152.3,565.895m-4.555,0a4.555,4.555,0,1,0,4.555-4.555A4.555,4.555,0,0,0,147.75,565.895Z" transform="translate(-141.438 -530.439)" fill="#fcc9b6"/>
        <path id="路径_50" data-name="路径 50" d="M153.275,566.865m-4.475,0a4.475,4.475,0,1,0,4.475-4.475A4.475,4.475,0,0,0,148.8,566.865Z" transform="translate(-142.408 -531.409)" fill="#fcc8b5"/>
        <path id="路径_51" data-name="路径 51" d="M154.255,567.845m-4.4,0a4.4,4.4,0,1,0,4.4-4.4,4.4,4.4,0,0,0-4.4,4.4Z" transform="translate(-143.388 -532.389)" fill="#fcc7b4"/>
        <path id="路径_52" data-name="路径 52" d="M155.235,568.825m-4.315,0a4.315,4.315,0,1,0,4.315-4.315,4.315,4.315,0,0,0-4.315,4.315Z" transform="translate(-144.368 -533.369)" fill="#fcc6b3"/>
        <path id="路径_53" data-name="路径 53" d="M156.215,569.805m-4.235,0a4.235,4.235,0,1,0,4.235-4.235A4.235,4.235,0,0,0,151.98,569.805Z" transform="translate(-145.348 -534.349)" fill="#fcc6b2"/>
        <path id="路径_54" data-name="路径 54" d="M157.2,570.785m-4.155,0a4.155,4.155,0,1,0,4.155-4.155A4.155,4.155,0,0,0,153.04,570.785Z" transform="translate(-146.328 -535.329)" fill="#fcc5b1"/>
        <path id="路径_55" data-name="路径 55" d="M158.166,571.756m-4.076,0a4.076,4.076,0,1,0,4.076-4.076A4.076,4.076,0,0,0,154.09,571.756Z" transform="translate(-147.299 -536.3)" fill="#fcc4b0"/>
        <path id="路径_56" data-name="路径 56" d="M159.146,572.736m-4,0a4,4,0,1,0,4-4A4,4,0,0,0,155.15,572.736Z" transform="translate(-148.279 -537.28)" fill="#fbc3ae"/>
        <path id="路径_57" data-name="路径 57" d="M160.125,573.715m-3.916,0a3.916,3.916,0,1,0,3.916-3.916A3.916,3.916,0,0,0,156.21,573.715Z" transform="translate(-149.258 -538.259)" fill="#fbc2ad"/>
        <path id="路径_58" data-name="路径 58" d="M161.105,574.7m-3.835,0a3.835,3.835,0,1,0,3.835-3.835A3.835,3.835,0,0,0,157.27,574.7Z" transform="translate(-150.238 -539.239)" fill="#fbc2ac"/>
        <path id="路径_59" data-name="路径 59" d="M162.076,575.666m-3.756,0a3.756,3.756,0,1,0,3.756-3.756A3.756,3.756,0,0,0,158.32,575.666Z" transform="translate(-151.209 -540.21)" fill="#fbc1ab"/>
        <path id="路径_60" data-name="路径 60" d="M163.056,576.646m-3.676,0a3.676,3.676,0,1,0,3.676-3.676A3.676,3.676,0,0,0,159.38,576.646Z" transform="translate(-152.189 -541.19)" fill="#fbc0aa"/>
        <path id="路径_61" data-name="路径 61" d="M164.036,577.626m-3.6,0a3.6,3.6,0,1,0,3.6-3.6A3.6,3.6,0,0,0,160.44,577.626Z" transform="translate(-153.169 -542.17)" fill="#fbbfa9"/>
        <path id="路径_62" data-name="路径 62" d="M165.016,578.606m-3.516,0a3.516,3.516,0,1,0,3.516-3.516,3.516,3.516,0,0,0-3.516,3.516Z" transform="translate(-154.149 -543.15)" fill="#fbbea8"/>
        <path id="路径_63" data-name="路径 63" d="M165.986,579.576m-3.436,0a3.437,3.437,0,1,0,3.436-3.436,3.437,3.437,0,0,0-3.436,3.436Z" transform="translate(-155.119 -544.12)" fill="#fbbea7"/>
        <path id="路径_64" data-name="路径 64" d="M166.966,580.556m-3.356,0a3.356,3.356,0,1,0,3.356-3.356A3.356,3.356,0,0,0,163.61,580.556Z" transform="translate(-156.099 -545.1)" fill="#fbbda6"/>
        <path id="路径_65" data-name="路径 65" d="M167.946,581.536m-3.276,0a3.276,3.276,0,1,0,3.276-3.276A3.276,3.276,0,0,0,164.67,581.536Z" transform="translate(-157.079 -546.08)" fill="#fbbca5"/>
        <path id="路径_66" data-name="路径 66" d="M168.926,582.516m-3.2,0a3.2,3.2,0,1,0,3.2-3.2A3.2,3.2,0,0,0,165.73,582.516Z" transform="translate(-158.059 -547.06)" fill="#fbbba4"/>
        <path id="路径_67" data-name="路径 67" d="M169.9,583.487m-3.117,0a3.117,3.117,0,1,0,3.117-3.117A3.117,3.117,0,0,0,166.78,583.487Z" transform="translate(-159.03 -548.031)" fill="#fbbaa3"/>
        <path id="路径_68" data-name="路径 68" d="M170.877,584.467m-3.037,0a3.037,3.037,0,1,0,3.037-3.037A3.037,3.037,0,0,0,167.84,584.467Z" transform="translate(-160.01 -549.011)" fill="#fbbaa2"/>
        <path id="路径_69" data-name="路径 69" d="M171.857,585.447m-2.957,0a2.957,2.957,0,1,0,2.957-2.957A2.957,2.957,0,0,0,168.9,585.447Z" transform="translate(-160.99 -549.991)" fill="#fbb9a1"/>
        <path id="路径_70" data-name="路径 70" d="M172.837,586.427m-2.877,0a2.877,2.877,0,1,0,2.877-2.877A2.876,2.876,0,0,0,169.96,586.427Z" transform="translate(-161.969 -550.971)" fill="#fbb8a0"/>
        <path id="路径_71" data-name="路径 71" d="M173.807,587.4m-2.8,0a2.8,2.8,0,1,0,2.8-2.8A2.8,2.8,0,0,0,171.01,587.4Z" transform="translate(-162.94 -551.941)" fill="#fbb79f"/>
        <path id="路径_72" data-name="路径 72" d="M174.787,588.377m-2.717,0a2.717,2.717,0,1,0,2.717-2.717A2.717,2.717,0,0,0,172.07,588.377Z" transform="translate(-163.92 -552.921)" fill="#fbb69e"/>
        <path id="路径_73" data-name="路径 73" d="M175.767,589.357m-2.637,0a2.637,2.637,0,1,0,2.637-2.637A2.637,2.637,0,0,0,173.13,589.357Z" transform="translate(-164.9 -553.901)" fill="#fbb69d"/>
        <path id="路径_74" data-name="路径 74" d="M176.747,590.337m-2.557,0a2.557,2.557,0,1,0,2.557-2.557A2.557,2.557,0,0,0,174.19,590.337Z" transform="translate(-165.88 -554.881)" fill="#fbb59c"/>
        <path id="路径_75" data-name="路径 75" d="M177.718,591.308m-2.478,0a2.478,2.478,0,1,0,2.478-2.478A2.478,2.478,0,0,0,175.24,591.308Z" transform="translate(-166.851 -555.852)" fill="#fbb49b"/>
        <path id="路径_76" data-name="路径 76" d="M178.7,592.288m-2.4,0a2.4,2.4,0,1,0,2.4-2.4A2.4,2.4,0,0,0,176.3,592.288Z" transform="translate(-167.83 -556.832)" fill="#fbb39a"/>
        <path id="路径_77" data-name="路径 77" d="M179.677,593.268m-2.317,0a2.317,2.317,0,1,0,2.317-2.318A2.317,2.317,0,0,0,177.36,593.268Z" transform="translate(-168.81 -557.811)" fill="#fbb299"/>
        <path id="路径_78" data-name="路径 78" d="M180.657,594.247m-2.237,0a2.237,2.237,0,1,0,2.237-2.237A2.237,2.237,0,0,0,178.42,594.247Z" transform="translate(-169.79 -558.791)" fill="#fbb298"/>
        <path id="路径_79" data-name="路径 79" d="M181.637,595.227m-2.157,0a2.157,2.157,0,1,0,2.157-2.157A2.157,2.157,0,0,0,179.48,595.227Z" transform="translate(-170.77 -559.771)" fill="#fbb197"/>
        <path id="路径_80" data-name="路径 80" d="M182.608,596.2m-2.078,0a2.078,2.078,0,1,0,2.078-2.078,2.078,2.078,0,0,0-2.078,2.078Z" transform="translate(-171.741 -560.742)" fill="#fbb096"/>
        <path id="路径_81" data-name="路径 81" d="M183.588,597.178m-2,0a2,2,0,1,0,2-2A2,2,0,0,0,181.59,597.178Z" transform="translate(-172.721 -561.722)" fill="#fbaf95"/>
        <path id="路径_82" data-name="路径 82" d="M184.568,598.158m-1.918,0a1.918,1.918,0,1,0,1.918-1.918A1.918,1.918,0,0,0,182.65,598.158Z" transform="translate(-173.701 -562.702)" fill="#fbae94"/>
        <path id="路径_83" data-name="路径 83" d="M185.548,599.138m-1.838,0a1.838,1.838,0,1,0,1.838-1.838A1.838,1.838,0,0,0,183.71,599.138Z" transform="translate(-174.681 -563.682)" fill="#fbae93"/>
        <path id="路径_84" data-name="路径 84" d="M186.518,600.108m-1.758,0a1.758,1.758,0,1,0,1.758-1.758A1.758,1.758,0,0,0,184.76,600.108Z" transform="translate(-175.651 -564.652)" fill="#fbad92"/>
        <path id="路径_85" data-name="路径 85" d="M187.5,601.088m-1.678,0a1.678,1.678,0,1,0,1.678-1.678A1.678,1.678,0,0,0,185.82,601.088Z" transform="translate(-176.631 -565.632)" fill="#fbac91"/>
        <path id="路径_86" data-name="路径 86" d="M188.478,602.068m-1.6,0a1.6,1.6,0,1,0,1.6-1.6A1.6,1.6,0,0,0,186.88,602.068Z" transform="translate(-177.611 -566.612)" fill="#fbab90"/>
        <path id="路径_87" data-name="路径 87" d="M189.458,603.048m-1.518,0a1.518,1.518,0,1,0,1.518-1.518A1.518,1.518,0,0,0,187.94,603.048Z" transform="translate(-178.591 -567.592)" fill="#fbaa8f"/>
        <path id="路径_88" data-name="路径 88" d="M190.429,604.019m-1.439,0a1.439,1.439,0,1,0,1.439-1.439A1.439,1.439,0,0,0,188.99,604.019Z" transform="translate(-179.562 -568.563)" fill="#fbaa8e"/>
        <path id="路径_89" data-name="路径 89" d="M191.409,605m-1.359,0a1.359,1.359,0,1,0,1.359-1.359A1.359,1.359,0,0,0,190.05,605Z" transform="translate(-180.541 -569.543)" fill="#faa98d"/>
        <path id="路径_90" data-name="路径 90" d="M192.388,605.978m-1.278,0a1.278,1.278,0,1,0,1.278-1.279A1.279,1.279,0,0,0,191.11,605.978Z" transform="translate(-181.521 -570.522)" fill="#faa88c"/>
        <path id="路径_91" data-name="路径 91" d="M193.368,606.958m-1.2,0a1.2,1.2,0,1,0,1.2-1.2A1.2,1.2,0,0,0,192.17,606.958Z" transform="translate(-182.501 -571.502)" fill="#faa78b"/>
        <path id="路径_92" data-name="路径 92" d="M194.339,607.929m-1.119,0a1.119,1.119,0,1,0,1.119-1.119A1.119,1.119,0,0,0,193.22,607.929Z" transform="translate(-183.472 -572.473)" fill="#faa68a"/>
        <path id="路径_93" data-name="路径 93" d="M195.319,608.909m-1.039,0a1.039,1.039,0,1,0,1.039-1.039A1.039,1.039,0,0,0,194.28,608.909Z" transform="translate(-184.452 -573.453)" fill="#faa689"/>
        <path id="路径_94" data-name="路径 94" d="M196.3,609.889m-.959,0a.959.959,0,1,0,.959-.959A.959.959,0,0,0,195.34,609.889Z" transform="translate(-185.432 -574.433)" fill="#faa588"/>
        <path id="路径_95" data-name="路径 95" d="M197.279,610.869m-.879,0a.879.879,0,1,0,.879-.879A.879.879,0,0,0,196.4,610.869Z" transform="translate(-186.412 -575.413)" fill="#faa487"/>
        <path id="路径_96" data-name="路径 96" d="M198.249,611.839m-.8,0a.8.8,0,1,0,.8-.8A.8.8,0,0,0,197.45,611.839Z" transform="translate(-187.382 -576.383)" fill="#faa386"/>
        <path id="路径_97" data-name="路径 97" d="M199.229,612.819m-.719,0a.719.719,0,1,0,.719-.719A.719.719,0,0,0,198.51,612.819Z" transform="translate(-188.362 -577.363)" fill="#faa285"/>
        <path id="路径_98" data-name="路径 98" d="M200.209,613.8m-.639,0a.639.639,0,1,0,.639-.639A.639.639,0,0,0,199.57,613.8Z" transform="translate(-189.342 -578.343)" fill="#faa284"/>
        <path id="路径_99" data-name="路径 99" d="M201.189,614.779m-.559,0a.559.559,0,1,0,.559-.559.559.559,0,0,0-.559.559Z" transform="translate(-190.322 -579.323)" fill="#faa183"/>
        <path id="路径_100" data-name="路径 100" d="M202.16,615.75m-.48,0a.48.48,0,1,0,.48-.48.48.48,0,0,0-.48.48Z" transform="translate(-191.293 -580.294)" fill="#faa082"/>
        <path id="路径_101" data-name="路径 101" d="M203.14,616.73m-.4,0a.4.4,0,1,0,.4-.4A.4.4,0,0,0,202.74,616.73Z" transform="translate(-192.273 -581.274)" fill="#fa9f81"/>
        <path id="路径_102" data-name="路径 102" d="M204.12,617.71m-.32,0a.32.32,0,1,0,.32-.32.32.32,0,0,0-.32.32Z" transform="translate(-193.253 -582.254)" fill="#fa9e80"/>
        <path id="路径_103" data-name="路径 103" d="M205.1,618.69m-.24,0a.24.24,0,1,0,.24-.24A.24.24,0,0,0,204.86,618.69Z" transform="translate(-194.232 -583.234)" fill="#fa9e7f"/>
        <path id="路径_104" data-name="路径 104" d="M206.07,619.66m-.16,0a.16.16,0,1,0,.16-.16A.16.16,0,0,0,205.91,619.66Z" transform="translate(-195.203 -584.204)" fill="#fa9d7e"/>
        <path id="路径_105" data-name="路径 105" d="M207.05,620.64m-.08,0a.08.08,0,1,0,.08-.08A.08.08,0,0,0,206.97,620.64Z" transform="translate(-196.183 -585.184)" fill="#fa9c7d"/>
        <path id="路径_106" data-name="路径 106" d="M695.22,509.63h17.147v16.924H695.22Z" transform="translate(-647.54 -482.636)" fill="#fdece2"/>
        <path id="路径_107" data-name="路径 107" d="M704.468,517.408m-8.518,0a8.518,8.518,0,1,0,8.518-8.518A8.518,8.518,0,0,0,695.95,517.408Z" transform="translate(-648.215 -481.952)" fill="#fdece2"/>
        <path id="路径_108" data-name="路径 108" d="M705.494,518.434m-8.434,0A8.434,8.434,0,1,0,705.494,510,8.434,8.434,0,0,0,697.06,518.434Z" transform="translate(-649.241 -482.978)" fill="#fdebe1"/>
        <path id="路径_109" data-name="路径 109" d="M706.529,519.469m-8.349,0a8.349,8.349,0,1,0,8.349-8.349A8.349,8.349,0,0,0,698.18,519.469Z" transform="translate(-650.277 -484.013)" fill="#fdeae0"/>
        <path id="路径_110" data-name="路径 110" d="M707.565,520.5m-8.265,0a8.265,8.265,0,1,0,8.265-8.265A8.265,8.265,0,0,0,699.3,520.5Z" transform="translate(-651.312 -485.049)" fill="#fdeadf"/>
        <path id="路径_111" data-name="路径 111" d="M708.591,521.531m-8.181,0a8.181,8.181,0,1,0,8.181-8.181A8.181,8.181,0,0,0,700.41,521.531Z" transform="translate(-652.338 -486.075)" fill="#fde9de"/>
        <path id="路径_112" data-name="路径 112" d="M709.626,522.566m-8.1,0a8.1,8.1,0,1,0,8.1-8.1A8.1,8.1,0,0,0,701.53,522.566Z" transform="translate(-653.374 -487.11)" fill="#fde8dd"/>
        <path id="路径_113" data-name="路径 113" d="M710.662,523.6m-8.012,0a8.012,8.012,0,1,0,8.012-8.012A8.012,8.012,0,0,0,702.65,523.6Z" transform="translate(-654.409 -488.146)" fill="#fde7dc"/>
        <path id="路径_114" data-name="路径 114" d="M711.688,524.628m-7.928,0a7.928,7.928,0,1,0,7.928-7.928A7.928,7.928,0,0,0,703.76,524.628Z" transform="translate(-655.435 -489.172)" fill="#fde6db"/>
        <path id="路径_115" data-name="路径 115" d="M712.723,525.663m-7.843,0a7.843,7.843,0,1,0,7.843-7.843A7.843,7.843,0,0,0,704.88,525.663Z" transform="translate(-656.471 -490.207)" fill="#fde6da"/>
        <path id="路径_116" data-name="路径 116" d="M713.749,526.689m-7.759,0a7.759,7.759,0,1,0,7.759-7.759A7.759,7.759,0,0,0,705.99,526.689Z" transform="translate(-657.497 -491.233)" fill="#fde5d9"/>
        <path id="路径_117" data-name="路径 117" d="M714.785,527.725m-7.675,0a7.675,7.675,0,1,0,7.675-7.675A7.675,7.675,0,0,0,707.11,527.725Z" transform="translate(-658.532 -492.269)" fill="#fde4d8"/>
        <path id="路径_118" data-name="路径 118" d="M715.82,528.76m-7.59,0a7.59,7.59,0,1,0,7.59-7.59A7.59,7.59,0,0,0,708.23,528.76Z" transform="translate(-659.568 -493.304)" fill="#fde3d7"/>
        <path id="路径_119" data-name="路径 119" d="M716.846,529.786m-7.506,0a7.506,7.506,0,1,0,7.506-7.506A7.506,7.506,0,0,0,709.34,529.786Z" transform="translate(-660.594 -494.33)" fill="#fde2d6"/>
        <path id="路径_120" data-name="路径 120" d="M717.881,530.822m-7.422,0a7.422,7.422,0,1,0,7.422-7.422A7.422,7.422,0,0,0,710.46,530.822Z" transform="translate(-661.629 -495.366)" fill="#fde2d5"/>
        <path id="路径_121" data-name="路径 121" d="M718.908,531.848m-7.338,0a7.338,7.338,0,1,0,7.338-7.338,7.338,7.338,0,0,0-7.338,7.338Z" transform="translate(-662.655 -496.392)" fill="#fde1d4"/>
        <path id="路径_122" data-name="路径 122" d="M719.943,532.883m-7.253,0a7.253,7.253,0,1,0,7.253-7.253A7.253,7.253,0,0,0,712.69,532.883Z" transform="translate(-663.691 -497.427)" fill="#fde0d3"/>
        <path id="路径_123" data-name="路径 123" d="M720.978,533.918m-7.168,0a7.168,7.168,0,1,0,7.168-7.168A7.168,7.168,0,0,0,713.81,533.918Z" transform="translate(-664.726 -498.462)" fill="#fddfd2"/>
        <path id="路径_124" data-name="路径 124" d="M722,534.945m-7.085,0A7.085,7.085,0,1,0,722,527.86,7.085,7.085,0,0,0,714.92,534.945Z" transform="translate(-665.752 -499.489)" fill="#fcded1"/>
        <path id="路径_125" data-name="路径 125" d="M723.04,535.98m-7,0a7,7,0,1,0,7-7,7,7,0,0,0-7,7Z" transform="translate(-666.787 -500.524)" fill="#fcded0"/>
        <path id="路径_126" data-name="路径 126" d="M724.075,537.015m-6.915,0a6.915,6.915,0,1,0,6.915-6.915A6.915,6.915,0,0,0,717.16,537.015Z" transform="translate(-667.823 -501.559)" fill="#fcddcf"/>
        <path id="路径_127" data-name="路径 127" d="M725.1,538.041m-6.831,0a6.831,6.831,0,1,0,6.831-6.831A6.831,6.831,0,0,0,718.27,538.041Z" transform="translate(-668.849 -502.585)" fill="#fcdcce"/>
        <path id="路径_128" data-name="路径 128" d="M726.137,539.077m-6.747,0a6.747,6.747,0,1,0,6.747-6.747A6.747,6.747,0,0,0,719.39,539.077Z" transform="translate(-669.884 -503.621)" fill="#fcdbcd"/>
        <path id="路径_129" data-name="路径 129" d="M727.163,540.1m-6.663,0a6.663,6.663,0,1,0,6.663-6.663A6.663,6.663,0,0,0,720.5,540.1Z" transform="translate(-670.91 -504.647)" fill="#fcdacc"/>
        <path id="路径_130" data-name="路径 130" d="M728.2,541.138m-6.578,0a6.578,6.578,0,1,0,6.578-6.578A6.578,6.578,0,0,0,721.62,541.138Z" transform="translate(-671.946 -505.682)" fill="#fcdacb"/>
        <path id="路径_131" data-name="路径 131" d="M729.234,542.174m-6.494,0a6.494,6.494,0,1,0,6.494-6.494A6.494,6.494,0,0,0,722.74,542.174Z" transform="translate(-672.981 -506.718)" fill="#fcd9ca"/>
        <path id="路径_132" data-name="路径 132" d="M730.26,543.2m-6.41,0a6.41,6.41,0,1,0,6.41-6.41,6.41,6.41,0,0,0-6.41,6.41Z" transform="translate(-674.007 -507.744)" fill="#fcd8c9"/>
        <path id="路径_133" data-name="路径 133" d="M731.3,544.235m-6.325,0a6.325,6.325,0,1,0,6.325-6.325A6.325,6.325,0,0,0,724.97,544.235Z" transform="translate(-675.043 -508.779)" fill="#fcd7c8"/>
        <path id="路径_134" data-name="路径 134" d="M732.321,545.261m-6.241,0a6.241,6.241,0,1,0,6.241-6.241,6.241,6.241,0,0,0-6.241,6.241Z" transform="translate(-676.069 -509.805)" fill="#fcd6c7"/>
        <path id="路径_135" data-name="路径 135" d="M733.357,546.3m-6.157,0a6.157,6.157,0,1,0,6.157-6.157A6.157,6.157,0,0,0,727.2,546.3Z" transform="translate(-677.104 -510.841)" fill="#fcd6c6"/>
        <path id="路径_136" data-name="路径 136" d="M734.392,547.332m-6.072,0a6.072,6.072,0,1,0,6.072-6.072A6.072,6.072,0,0,0,728.32,547.332Z" transform="translate(-678.139 -511.876)" fill="#fcd5c5"/>
        <path id="路径_137" data-name="路径 137" d="M735.418,548.358m-5.988,0a5.988,5.988,0,1,0,5.988-5.988A5.988,5.988,0,0,0,729.43,548.358Z" transform="translate(-679.166 -512.902)" fill="#fcd4c4"/>
        <path id="路径_138" data-name="路径 138" d="M736.453,549.394m-5.9,0a5.9,5.9,0,1,0,5.9-5.9A5.9,5.9,0,0,0,730.55,549.394Z" transform="translate(-680.201 -513.938)" fill="#fcd3c3"/>
        <path id="路径_139" data-name="路径 139" d="M737.489,550.429m-5.819,0a5.819,5.819,0,1,0,5.819-5.819A5.819,5.819,0,0,0,731.67,550.429Z" transform="translate(-681.236 -514.973)" fill="#fcd2c2"/>
        <path id="路径_140" data-name="路径 140" d="M738.515,551.455m-5.735,0a5.735,5.735,0,1,0,5.735-5.735A5.735,5.735,0,0,0,732.78,551.455Z" transform="translate(-682.263 -515.999)" fill="#fcd2c1"/>
        <path id="路径_141" data-name="路径 141" d="M739.55,552.49m-5.65,0a5.65,5.65,0,1,0,5.65-5.65A5.65,5.65,0,0,0,733.9,552.49Z" transform="translate(-683.298 -517.034)" fill="#fcd1c0"/>
        <path id="路径_142" data-name="路径 142" d="M740.577,553.516m-5.567,0a5.567,5.567,0,1,0,5.567-5.567A5.567,5.567,0,0,0,735.01,553.516Z" transform="translate(-684.324 -518.06)" fill="#fcd0bf"/>
        <path id="路径_143" data-name="路径 143" d="M741.612,554.552m-5.482,0a5.482,5.482,0,1,0,5.482-5.482A5.482,5.482,0,0,0,736.13,554.552Z" transform="translate(-685.359 -519.096)" fill="#fccfbe"/>
        <path id="路径_144" data-name="路径 144" d="M742.647,555.587m-5.4,0a5.4,5.4,0,1,0,5.4-5.4A5.4,5.4,0,0,0,737.25,555.587Z" transform="translate(-686.395 -520.131)" fill="#fccebd"/>
        <path id="路径_145" data-name="路径 145" d="M743.673,556.613m-5.313,0a5.313,5.313,0,1,0,5.313-5.313A5.313,5.313,0,0,0,738.36,556.613Z" transform="translate(-687.421 -521.157)" fill="#fccebc"/>
        <path id="路径_146" data-name="路径 146" d="M744.709,557.649m-5.229,0a5.229,5.229,0,1,0,5.229-5.229,5.229,5.229,0,0,0-5.229,5.229Z" transform="translate(-688.456 -522.193)" fill="#fccdbb"/>
        <path id="路径_147" data-name="路径 147" d="M745.735,558.675m-5.145,0a5.145,5.145,0,1,0,5.145-5.145A5.145,5.145,0,0,0,740.59,558.675Z" transform="translate(-689.482 -523.219)" fill="#fcccba"/>
        <path id="路径_148" data-name="路径 148" d="M746.77,559.71m-5.06,0a5.06,5.06,0,1,0,5.06-5.06A5.06,5.06,0,0,0,741.71,559.71Z" transform="translate(-690.518 -524.254)" fill="#fccbb9"/>
        <path id="路径_149" data-name="路径 149" d="M747.806,560.746m-4.976,0a4.976,4.976,0,1,0,4.976-4.976A4.976,4.976,0,0,0,742.83,560.746Z" transform="translate(-691.553 -525.29)" fill="#fccab8"/>
        <path id="路径_150" data-name="路径 150" d="M748.832,561.772m-4.892,0a4.892,4.892,0,1,0,4.892-4.892A4.892,4.892,0,0,0,743.94,561.772Z" transform="translate(-692.579 -526.316)" fill="#fccab7"/>
        <path id="路径_151" data-name="路径 151" d="M749.867,562.807m-4.807,0A4.807,4.807,0,1,0,749.867,558,4.807,4.807,0,0,0,745.06,562.807Z" transform="translate(-693.615 -527.351)" fill="#fcc9b6"/>
        <path id="路径_152" data-name="路径 152" d="M750.9,563.842m-4.723,0a4.723,4.723,0,1,0,4.723-4.723A4.723,4.723,0,0,0,746.18,563.842Z" transform="translate(-694.65 -528.386)" fill="#fcc8b5"/>
        <path id="路径_153" data-name="路径 153" d="M751.929,564.869m-4.639,0a4.639,4.639,0,1,0,4.639-4.639A4.639,4.639,0,0,0,747.29,564.869Z" transform="translate(-695.676 -529.413)" fill="#fcc7b4"/>
        <path id="路径_154" data-name="路径 154" d="M752.964,565.9m-4.554,0a4.554,4.554,0,1,0,4.554-4.554A4.554,4.554,0,0,0,748.41,565.9Z" transform="translate(-696.711 -530.448)" fill="#fcc6b3"/>
        <path id="路径_155" data-name="路径 155" d="M753.99,566.93m-4.47,0a4.47,4.47,0,1,0,4.47-4.47A4.47,4.47,0,0,0,749.52,566.93Z" transform="translate(-697.738 -531.474)" fill="#fcc6b2"/>
        <path id="路径_156" data-name="路径 156" d="M755.026,567.966m-4.386,0a4.386,4.386,0,1,0,4.386-4.385A4.386,4.386,0,0,0,750.64,567.966Z" transform="translate(-698.773 -532.51)" fill="#fcc5b1"/>
        <path id="路径_157" data-name="路径 157" d="M756.061,569m-4.3,0a4.3,4.3,0,1,0,4.3-4.3A4.3,4.3,0,0,0,751.76,569Z" transform="translate(-699.808 -533.545)" fill="#fcc4b0"/>
        <path id="路径_158" data-name="路径 158" d="M757.087,570.027m-4.217,0a4.217,4.217,0,1,0,4.217-4.217A4.217,4.217,0,0,0,752.87,570.027Z" transform="translate(-700.835 -534.571)" fill="#fbc3ae"/>
        <path id="路径_159" data-name="路径 159" d="M758.122,571.062m-4.132,0a4.132,4.132,0,1,0,4.132-4.132A4.132,4.132,0,0,0,753.99,571.062Z" transform="translate(-701.87 -535.606)" fill="#fbc2ad"/>
        <path id="路径_160" data-name="路径 160" d="M759.149,572.089m-4.049,0a4.049,4.049,0,1,0,4.049-4.049A4.048,4.048,0,0,0,755.1,572.089Z" transform="translate(-702.896 -536.632)" fill="#fbc2ac"/>
        <path id="路径_161" data-name="路径 161" d="M760.184,573.124m-3.964,0a3.964,3.964,0,1,0,3.964-3.964,3.964,3.964,0,0,0-3.964,3.964Z" transform="translate(-703.931 -537.668)" fill="#fbc1ab"/>
        <path id="路径_162" data-name="路径 162" d="M761.219,574.159m-3.879,0a3.879,3.879,0,1,0,3.879-3.879,3.879,3.879,0,0,0-3.879,3.879Z" transform="translate(-704.967 -538.703)" fill="#fbc0aa"/>
        <path id="路径_163" data-name="路径 163" d="M762.245,575.185m-3.8,0a3.8,3.8,0,1,0,3.8-3.8A3.8,3.8,0,0,0,758.45,575.185Z" transform="translate(-705.993 -539.729)" fill="#fbbfa9"/>
        <path id="路径_164" data-name="路径 164" d="M763.281,576.221m-3.711,0a3.711,3.711,0,1,0,3.711-3.711A3.711,3.711,0,0,0,759.57,576.221Z" transform="translate(-707.028 -540.765)" fill="#fbbea8"/>
        <path id="路径_165" data-name="路径 165" d="M764.316,577.256m-3.626,0a3.626,3.626,0,1,0,3.626-3.626A3.626,3.626,0,0,0,760.69,577.256Z" transform="translate(-708.064 -541.8)" fill="#fbbea7"/>
        <path id="路径_166" data-name="路径 166" d="M765.342,578.282m-3.542,0a3.542,3.542,0,1,0,3.542-3.542A3.542,3.542,0,0,0,761.8,578.282Z" transform="translate(-709.09 -542.826)" fill="#fbbda6"/>
        <path id="路径_167" data-name="路径 167" d="M766.378,579.318m-3.458,0a3.458,3.458,0,1,0,3.458-3.458A3.458,3.458,0,0,0,762.92,579.318Z" transform="translate(-710.125 -543.862)" fill="#fbbca5"/>
        <path id="路径_168" data-name="路径 168" d="M767.4,580.344m-3.374,0a3.374,3.374,0,1,0,3.374-3.374A3.374,3.374,0,0,0,764.03,580.344Z" transform="translate(-711.151 -544.888)" fill="#fbbba4"/>
        <path id="路径_169" data-name="路径 169" d="M768.439,581.379m-3.289,0a3.289,3.289,0,1,0,3.289-3.289A3.289,3.289,0,0,0,765.15,581.379Z" transform="translate(-712.187 -545.923)" fill="#fbbaa3"/>
        <path id="路径_170" data-name="路径 170" d="M769.475,582.414m-3.2,0a3.2,3.2,0,1,0,3.2-3.2A3.2,3.2,0,0,0,766.27,582.414Z" transform="translate(-713.222 -546.958)" fill="#fbbaa2"/>
        <path id="路径_171" data-name="路径 171" d="M770.5,583.441m-3.121,0a3.121,3.121,0,1,0,3.121-3.121A3.121,3.121,0,0,0,767.38,583.441Z" transform="translate(-714.248 -547.985)" fill="#fbb9a1"/>
        <path id="路径_172" data-name="路径 172" d="M771.536,584.476m-3.036,0a3.036,3.036,0,1,0,3.036-3.036A3.036,3.036,0,0,0,768.5,584.476Z" transform="translate(-715.284 -549.02)" fill="#fbb8a0"/>
        <path id="路径_173" data-name="路径 173" d="M772.562,585.5m-2.952,0a2.952,2.952,0,1,0,2.952-2.952A2.952,2.952,0,0,0,769.61,585.5Z" transform="translate(-716.31 -550.046)" fill="#fbb79f"/>
        <path id="路径_174" data-name="路径 174" d="M773.6,586.537m-2.867,0a2.867,2.867,0,1,0,2.867-2.868A2.868,2.868,0,0,0,770.73,586.537Z" transform="translate(-717.345 -551.081)" fill="#fbb69e"/>
        <path id="路径_175" data-name="路径 175" d="M774.633,587.573m-2.783,0a2.783,2.783,0,1,0,2.783-2.783A2.783,2.783,0,0,0,771.85,587.573Z" transform="translate(-718.38 -552.117)" fill="#fbb69d"/>
        <path id="路径_176" data-name="路径 176" d="M775.659,588.6m-2.7,0a2.7,2.7,0,1,0,2.7-2.7A2.7,2.7,0,0,0,772.96,588.6Z" transform="translate(-719.406 -553.143)" fill="#fbb59c"/>
        <path id="路径_177" data-name="路径 177" d="M776.694,589.634m-2.614,0a2.614,2.614,0,1,0,2.614-2.614A2.614,2.614,0,0,0,774.08,589.634Z" transform="translate(-720.442 -554.178)" fill="#fbb49b"/>
        <path id="路径_178" data-name="路径 178" d="M777.73,590.67m-2.53,0a2.53,2.53,0,1,0,2.53-2.53,2.53,2.53,0,0,0-2.53,2.53Z" transform="translate(-721.477 -555.214)" fill="#fbb39a"/>
        <path id="路径_179" data-name="路径 179" d="M778.756,591.7m-2.446,0a2.446,2.446,0,1,0,2.446-2.446A2.446,2.446,0,0,0,776.31,591.7Z" transform="translate(-722.503 -556.24)" fill="#fbb299"/>
        <path id="路径_180" data-name="路径 180" d="M779.791,592.731m-2.361,0a2.361,2.361,0,1,0,2.361-2.361,2.361,2.361,0,0,0-2.361,2.361Z" transform="translate(-723.539 -557.275)" fill="#fbb298"/>
        <path id="路径_181" data-name="路径 181" d="M780.817,593.757m-2.277,0a2.277,2.277,0,1,0,2.277-2.277A2.277,2.277,0,0,0,778.54,593.757Z" transform="translate(-724.565 -558.301)" fill="#fbb197"/>
        <path id="路径_182" data-name="路径 182" d="M781.853,594.793m-2.193,0a2.193,2.193,0,1,0,2.193-2.193,2.193,2.193,0,0,0-2.193,2.193Z" transform="translate(-725.6 -559.337)" fill="#fbb096"/>
        <path id="路径_183" data-name="路径 183" d="M782.888,595.828m-2.108,0a2.108,2.108,0,1,0,2.108-2.108,2.108,2.108,0,0,0-2.108,2.108Z" transform="translate(-726.636 -560.372)" fill="#fbaf95"/>
        <path id="路径_184" data-name="路径 184" d="M783.914,596.854m-2.024,0a2.024,2.024,0,1,0,2.024-2.024A2.024,2.024,0,0,0,781.89,596.854Z" transform="translate(-727.662 -561.398)" fill="#fbae94"/>
        <path id="路径_185" data-name="路径 185" d="M784.95,597.89m-1.94,0a1.94,1.94,0,1,0,1.94-1.94A1.94,1.94,0,0,0,783.01,597.89Z" transform="translate(-728.697 -562.434)" fill="#fbae93"/>
        <path id="路径_186" data-name="路径 186" d="M785.976,598.916m-1.856,0a1.856,1.856,0,1,0,1.856-1.856,1.856,1.856,0,0,0-1.856,1.856Z" transform="translate(-729.723 -563.46)" fill="#fbad92"/>
        <path id="路径_187" data-name="路径 187" d="M787.011,599.951m-1.771,0a1.771,1.771,0,1,0,1.771-1.771,1.771,1.771,0,0,0-1.771,1.771Z" transform="translate(-730.758 -564.495)" fill="#fbac91"/>
        <path id="路径_188" data-name="路径 188" d="M788.046,600.986m-1.687,0a1.687,1.687,0,1,0,1.687-1.686A1.687,1.687,0,0,0,786.36,600.986Z" transform="translate(-731.794 -565.531)" fill="#fbab90"/>
        <path id="路径_189" data-name="路径 189" d="M789.073,602.013m-1.6,0a1.6,1.6,0,1,0,1.6-1.6A1.6,1.6,0,0,0,787.47,602.013Z" transform="translate(-732.82 -566.557)" fill="#fbaa8f"/>
        <path id="路径_190" data-name="路径 190" d="M790.108,603.048m-1.518,0a1.518,1.518,0,1,0,1.518-1.518A1.518,1.518,0,0,0,788.59,603.048Z" transform="translate(-733.855 -567.592)" fill="#fbaa8e"/>
        <path id="路径_191" data-name="路径 191" d="M791.143,604.083m-1.433,0a1.433,1.433,0,1,0,1.433-1.433A1.433,1.433,0,0,0,789.71,604.083Z" transform="translate(-734.891 -568.627)" fill="#faa98d"/>
        <path id="路径_192" data-name="路径 192" d="M792.169,605.11m-1.349,0a1.349,1.349,0,1,0,1.349-1.35A1.349,1.349,0,0,0,790.82,605.11Z" transform="translate(-735.917 -569.654)" fill="#faa88c"/>
        <path id="路径_193" data-name="路径 193" d="M793.2,606.145m-1.265,0a1.265,1.265,0,1,0,1.265-1.265A1.265,1.265,0,0,0,791.94,606.145Z" transform="translate(-736.952 -570.689)" fill="#faa78b"/>
        <path id="路径_194" data-name="路径 194" d="M794.231,607.171m-1.181,0a1.181,1.181,0,1,0,1.181-1.181,1.181,1.181,0,0,0-1.181,1.181Z" transform="translate(-737.978 -571.715)" fill="#faa68a"/>
        <path id="路径_195" data-name="路径 195" d="M795.266,608.206m-1.1,0a1.1,1.1,0,1,0,1.1-1.1A1.1,1.1,0,0,0,794.17,608.206Z" transform="translate(-739.014 -572.75)" fill="#faa689"/>
        <path id="路径_196" data-name="路径 196" d="M796.3,609.242m-1.012,0a1.012,1.012,0,1,0,1.012-1.012,1.012,1.012,0,0,0-1.012,1.012Z" transform="translate(-740.049 -573.786)" fill="#faa588"/>
        <path id="路径_197" data-name="路径 197" d="M797.328,610.268m-.928,0a.928.928,0,1,0,.928-.928A.928.928,0,0,0,796.4,610.268Z" transform="translate(-741.075 -574.812)" fill="#faa487"/>
        <path id="路径_198" data-name="路径 198" d="M798.363,611.3m-.843,0a.843.843,0,1,0,.843-.843A.843.843,0,0,0,797.52,611.3Z" transform="translate(-742.111 -575.847)" fill="#faa386"/>
        <path id="路径_199" data-name="路径 199" d="M799.389,612.329m-.759,0a.759.759,0,1,0,.759-.759A.759.759,0,0,0,798.63,612.329Z" transform="translate(-743.137 -576.873)" fill="#faa285"/>
        <path id="路径_200" data-name="路径 200" d="M800.425,613.365m-.675,0a.675.675,0,1,0,.675-.675A.675.675,0,0,0,799.75,613.365Z" transform="translate(-744.172 -577.909)" fill="#faa284"/>
        <path id="路径_201" data-name="路径 201" d="M801.46,614.4m-.59,0a.59.59,0,1,0,.59-.59A.59.59,0,0,0,800.87,614.4Z" transform="translate(-745.208 -578.944)" fill="#faa183"/>
        <path id="路径_202" data-name="路径 202" d="M802.486,615.426m-.506,0a.506.506,0,1,0,.506-.506A.506.506,0,0,0,801.98,615.426Z" transform="translate(-746.234 -579.97)" fill="#faa082"/>
        <path id="路径_203" data-name="路径 203" d="M803.521,616.462m-.422,0a.422.422,0,1,0,.422-.422A.422.422,0,0,0,803.1,616.462Z" transform="translate(-747.269 -581.005)" fill="#fa9f81"/>
        <path id="路径_204" data-name="路径 204" d="M804.557,617.5m-.337,0a.337.337,0,1,0,.337-.337A.337.337,0,0,0,804.22,617.5Z" transform="translate(-748.304 -582.041)" fill="#fa9e80"/>
        <path id="路径_205" data-name="路径 205" d="M805.583,618.523m-.253,0a.253.253,0,1,0,.253-.253A.253.253,0,0,0,805.33,618.523Z" transform="translate(-749.33 -583.067)" fill="#fa9e7f"/>
        <path id="路径_206" data-name="路径 206" d="M806.618,619.558m-.169,0a.168.168,0,1,0,.169-.168A.169.169,0,0,0,806.45,619.558Z" transform="translate(-750.366 -584.102)" fill="#fa9d7e"/>
        <path id="路径_207" data-name="路径 207" d="M807.645,620.584m-.085,0a.085.085,0,1,0,.085-.085A.085.085,0,0,0,807.56,620.584Z" transform="translate(-751.392 -585.129)" fill="#fa9c7d"/>
        <path id="路径_208" data-name="路径 208" d="M442.051,491.276a1.38,1.38,0,0,1-1.38-1.38V486.86a1.38,1.38,0,1,1,2.759,0V489.9A1.38,1.38,0,0,1,442.051,491.276Zm-9.431,0a1.38,1.38,0,0,1-1.38-1.38V486.86a1.38,1.38,0,0,1,2.759,0V489.9A1.379,1.379,0,0,1,432.62,491.276Z" transform="translate(-403.507 -460.311)" fill="#d39a7b"/>
        <path id="路径_209" data-name="路径 209" d="M448.237,646.26a.476.476,0,0,1,.476.484c-.119,6.7-2.705,12.059-5.877,12.059s-5.758-5.356-5.877-12.059a.476.476,0,0,1,.476-.484Z" transform="translate(-408.794 -608.942)" fill="#bd202a"/>
        <path id="路径_210" data-name="路径 210" d="M462.353,729.3c1.688,0,3.21-1.517,4.283-3.947a4.652,4.652,0,0,0-8.566,0C459.142,727.785,460.665,729.3,462.353,729.3Z" transform="translate(-428.31 -679.44)" fill="#f1987a"/>
        <path id="路径_211" data-name="路径 211" d="M374.669,375.384a.378.378,0,0,1-.3-.148,4.745,4.745,0,0,0-6.483-1.278.378.378,0,0,1-.412-.634,6.305,6.305,0,0,1,2.526-.857,5.3,5.3,0,0,1,4.969,2.31.378.378,0,0,1-.3.608Zm-23.025.018a.378.378,0,0,1-.292-.617c3.114-3.8,5.982-2.09,7.36-1.266l.064.039a.378.378,0,1,1-.388.649l-.065-.039c-1.379-.824-3.687-2.2-6.388,1.1A.374.374,0,0,1,351.644,375.4Z" transform="translate(-329.576 -355.787)" fill="#323333"/>
      </g>
      <text id="猪猪管家" transform="translate(102.537 55)" fill="#707070" font-size="46" font-family="STXihei" letter-spacing="0.07em"><tspan x="0" y="0">猪猪管家</tspan></text>
    </g>
  </g>
</svg>
