<svg id="图层_1" data-name="图层 1" xmlns="http://www.w3.org/2000/svg" viewBox="0 0 260 189"><defs><style>.cls-1{fill:#0a2f50;}.cls-2{fill:#2297cd;}</style></defs><title>logo</title><path class="cls-1" d="M127.3,138.62a14.6,14.6,0,0,0,3.26-.34l1.06-.27a9.77,9.77,0,0,1,1.89-.17A9.61,9.61,0,0,1,143,148.12l0,.23a6.37,6.37,0,0,0,0,1.07,7.33,7.33,0,1,0,9.22-7.59,7.14,7.14,0,0,0-1.79-.22h-.59a9.61,9.61,0,0,1-9-9.66,10.05,10.05,0,0,1,.28-2.21l.71-2a14.72,14.72,0,0,0,.58-4,15,15,0,1,0-15.09,14.89Z"/><circle class="cls-2" cx="26.95" cy="83.15" r="22.11"/><circle class="cls-2" cx="183.11" cy="166.19" r="19.23"/><circle class="cls-2" cx="187.13" cy="33.41" r="13.46"/><circle class="cls-2" cx="91.37" cy="33.41" r="15.38"/><circle class="cls-1" cx="60.08" cy="109.6" r="11.54"/><circle class="cls-1" cx="159.07" cy="128.35" r="8.65"/><path class="cls-1" d="M210.61,55A44.08,44.08,0,0,0,201,56l-3.15.81a28.06,28.06,0,0,1-5.54.55A28.37,28.37,0,0,1,164,27.24l.06-.67a22.52,22.52,0,0,0,0-3.18A21.63,21.63,0,1,0,137,46a20.82,20.82,0,0,0,5.28.6l-1.33,0H144A28.38,28.38,0,0,1,170.85,75a28.83,28.83,0,0,1-.77,6.54L168,87.33A44.23,44.23,0,1,0,210.61,55Z"/><path class="cls-2" d="M111.15,78.62a24.14,24.14,0,0,0,.5,5.2l.41,1.7a15,15,0,0,1,.25,3,15.33,15.33,0,0,1-16.52,15l-.36,0a13.89,13.89,0,0,0-1.71,0,11.69,11.69,0,1,0,12,14.81,11,11,0,0,0,.37-2.85c0,.24,0,.48,0,.72l0-1.67a15.33,15.33,0,0,1,15.52-14.26,15.72,15.72,0,0,1,3.52.47l3.14,1.17a23.63,23.63,0,0,0,6.39,1,23.89,23.89,0,1,0-23.53-24.25Z"/><path class="cls-1" d="M83.65,55.18a19.88,19.88,0,0,0-4.33.45L77.9,56A12.77,12.77,0,0,1,62.74,42.58l0-.3a11.37,11.37,0,0,0,0-1.43A9.73,9.73,0,1,0,50.54,51a9.44,9.44,0,0,0,2.37.29h.79a12.77,12.77,0,0,1,12,12.82A13.59,13.59,0,0,1,65.34,67l-1,2.62A19.9,19.9,0,1,0,83.65,55.18Z"/></svg>