<?xml version="1.0" standalone="no"?><!DOCTYPE svg PUBLIC "-//W3C//DTD SVG 1.1//EN" "http://www.w3.org/Graphics/SVG/1.1/DTD/svg11.dtd"><svg t="1679975114367" class="icon" viewBox="0 0 1024 1024" version="1.1" xmlns="http://www.w3.org/2000/svg" p-id="26304" width="128" height="128" xmlns:xlink="http://www.w3.org/1999/xlink"><path d="M931.84 525.35a6.467 6.467 0 0 1-1.03-3.58v-0.02c0-153.24-159.1-369.37-418.53-369.37-251.44 0-418.53 208.83-418.53 369.37v0.02c0 1.27-0.34 2.51-1.03 3.58-18.37 28.13-28.51 58.56-28.51 90.38 0 142.18 181.31 257.43 448.07 257.43 266.73 0 448.07-115.26 448.07-257.43 0-31.82-10.14-62.26-28.51-90.38z" fill="#FDECE2" p-id="26305"></path><path d="M377.63 505.61c0.11-0.16 0.2-0.33 0.29-0.5 2.27-4.37 36.21-66.38 134.75-65.57 97.34 0.8 130.49 58.25 133.38 63.63 0.14 0.27 0.3 0.51 0.48 0.76 2.65 3.58 23.89 34.09 9.86 73.04-14.94 41.48-50.12 51.27-80.6 39.7-30.49-11.57-42.21-16.77-62.35-16.77s-43.91 8.61-63.95 16.87-53.75 9.07-72.66-22.72c-18.86-31.69-15.65-63.28 0.8-88.44z" fill="#D39A7B" p-id="26306"></path><path d="M377.63 496.87c0.11-0.16 0.2-0.33 0.29-0.5 2.27-4.37 36.21-66.38 134.75-65.57 97.34 0.8 130.49 58.25 133.38 63.63 0.14 0.27 0.3 0.51 0.48 0.76 2.65 3.58 23.89 34.09 9.86 73.04-14.94 41.48-50.12 51.27-80.6 39.7-30.49-11.57-42.21-16.77-62.35-16.77s-43.91 8.61-63.95 16.87-53.75 9.07-72.66-22.72c-18.86-31.69-15.65-63.28 0.8-88.44zM852.5 218.2c0.11 0.1 0.21 0.19 0.32 0.28 2.74 2.18 36.42 29.3 49.39 53.39 13.52 25.12 21.01 50.43-4.02 80.23s-93.74 58.05-130.82 63.51c-37.07 5.45-75.85 0.95-88.18-45.33-12.33-46.28 1.65-121.99 20.2-159.67 17.14-34.8 43.36-38.61 47.27-38.99 0.33-0.03 0.65-0.09 0.96-0.18 3.46-0.94 26.03-5.47 70.36 21.59 24.3 16.01 33.3 24.05 34.52 25.17zM168.12 218.2c-0.11 0.1-0.21 0.19-0.32 0.28-2.74 2.18-36.42 29.3-49.39 53.39-13.52 25.12-21.01 50.43 4.02 80.23s93.74 58.05 130.82 63.51c37.07 5.45 75.85 0.95 88.18-45.33 12.33-46.28-1.65-121.99-20.2-159.67-17.14-34.8-43.36-38.61-47.27-38.99-0.33-0.03-0.65-0.09-0.96-0.18-3.46-0.94-26.03-5.47-70.36 21.59-24.3 16.01-33.3 24.05-34.52 25.17z" fill="#FABDA9" p-id="26307"></path><path d="M100.52 515.5h215.02v212.23H100.52z" fill="#FDECE2" p-id="26308"></path><path d="M208.03 621.62m-106.82 0a106.82 106.82 0 1 0 213.64 0 106.82 106.82 0 1 0-213.64 0Z" fill="#FDECE2" p-id="26309"></path><path d="M208.03 621.62m-105.76 0a105.76 105.76 0 1 0 211.52 0 105.76 105.76 0 1 0-211.52 0Z" fill="#FDEBE1" p-id="26310"></path><path d="M208.03 621.62m-104.7 0a104.7 104.7 0 1 0 209.4 0 104.7 104.7 0 1 0-209.4 0Z" fill="#FDEAE0" p-id="26311"></path><path d="M208.03 621.62m-103.64 0a103.64 103.64 0 1 0 207.28 0 103.64 103.64 0 1 0-207.28 0Z" fill="#FDEADF" p-id="26312"></path><path d="M208.03 621.62m-102.59 0a102.59 102.59 0 1 0 205.18 0 102.59 102.59 0 1 0-205.18 0Z" fill="#FDE9DE" p-id="26313"></path><path d="M208.03 621.62m-101.53 0a101.53 101.53 0 1 0 203.06 0 101.53 101.53 0 1 0-203.06 0Z" fill="#FDE8DD" p-id="26314"></path><path d="M208.03 621.62m-100.47 0a100.47 100.47 0 1 0 200.94 0 100.47 100.47 0 1 0-200.94 0Z" fill="#FDE7DC" p-id="26315"></path><path d="M208.03 621.62m-99.41 0a99.41 99.41 0 1 0 198.82 0 99.41 99.41 0 1 0-198.82 0Z" fill="#FDE6DB" p-id="26316"></path><path d="M208.03 621.62m-98.36 0a98.36 98.36 0 1 0 196.72 0 98.36 98.36 0 1 0-196.72 0Z" fill="#FDE6DA" p-id="26317"></path><path d="M208.03 621.62m-97.3 0a97.3 97.3 0 1 0 194.6 0 97.3 97.3 0 1 0-194.6 0Z" fill="#FDE5D9" p-id="26318"></path><path d="M208.03 621.62m-96.24 0a96.24 96.24 0 1 0 192.48 0 96.24 96.24 0 1 0-192.48 0Z" fill="#FDE4D8" p-id="26319"></path><path d="M208.03 621.62m-95.18 0a95.18 95.18 0 1 0 190.36 0 95.18 95.18 0 1 0-190.36 0Z" fill="#FDE3D7" p-id="26320"></path><path d="M208.03 621.62m-94.13 0a94.13 94.13 0 1 0 188.26 0 94.13 94.13 0 1 0-188.26 0Z" fill="#FDE2D6" p-id="26321"></path><path d="M208.03 621.62m-93.07 0a93.07 93.07 0 1 0 186.14 0 93.07 93.07 0 1 0-186.14 0Z" fill="#FDE2D5" p-id="26322"></path><path d="M208.03 621.62m-92.01 0a92.01 92.01 0 1 0 184.02 0 92.01 92.01 0 1 0-184.02 0Z" fill="#FDE1D4" p-id="26323"></path><path d="M208.03 621.62m-90.95 0a90.95 90.95 0 1 0 181.9 0 90.95 90.95 0 1 0-181.9 0Z" fill="#FDE0D3" p-id="26324"></path><path d="M208.03 621.62m-89.9 0a89.9 89.9 0 1 0 179.8 0 89.9 89.9 0 1 0-179.8 0Z" fill="#FDDFD2" p-id="26325"></path><path d="M208.03 621.62m-88.84 0a88.84 88.84 0 1 0 177.68 0 88.84 88.84 0 1 0-177.68 0Z" fill="#FCDED1" p-id="26326"></path><path d="M208.03 621.62m-87.78 0a87.78 87.78 0 1 0 175.56 0 87.78 87.78 0 1 0-175.56 0Z" fill="#FCDED0" p-id="26327"></path><path d="M208.03 621.62m-86.72 0a86.72 86.72 0 1 0 173.44 0 86.72 86.72 0 1 0-173.44 0Z" fill="#FCDDCF" p-id="26328"></path><path d="M208.03 621.62m-85.66 0a85.66 85.66 0 1 0 171.32 0 85.66 85.66 0 1 0-171.32 0Z" fill="#FCDCCE" p-id="26329"></path><path d="M208.03 621.62m-84.61 0a84.61 84.61 0 1 0 169.22 0 84.61 84.61 0 1 0-169.22 0Z" fill="#FCDBCD" p-id="26330"></path><path d="M208.03 621.62m-83.55 0a83.55 83.55 0 1 0 167.1 0 83.55 83.55 0 1 0-167.1 0Z" fill="#FCDACC" p-id="26331"></path><path d="M208.03 621.62m-82.49 0a82.49 82.49 0 1 0 164.98 0 82.49 82.49 0 1 0-164.98 0Z" fill="#FCDACB" p-id="26332"></path><path d="M208.03 621.62m-81.43 0a81.43 81.43 0 1 0 162.86 0 81.43 81.43 0 1 0-162.86 0Z" fill="#FCD9CA" p-id="26333"></path><path d="M208.03 621.62m-80.38 0a80.38 80.38 0 1 0 160.76 0 80.38 80.38 0 1 0-160.76 0Z" fill="#FCD8C9" p-id="26334"></path><path d="M208.03 621.62m-79.32 0a79.32 79.32 0 1 0 158.64 0 79.32 79.32 0 1 0-158.64 0Z" fill="#FCD7C8" p-id="26335"></path><path d="M208.03 621.62m-78.26 0a78.26 78.26 0 1 0 156.52 0 78.26 78.26 0 1 0-156.52 0Z" fill="#FCD6C7" p-id="26336"></path><path d="M208.03 621.62m-77.2 0a77.2 77.2 0 1 0 154.4 0 77.2 77.2 0 1 0-154.4 0Z" fill="#FCD6C6" p-id="26337"></path><path d="M208.03 621.62m-76.15 0a76.15 76.15 0 1 0 152.3 0 76.15 76.15 0 1 0-152.3 0Z" fill="#FCD5C5" p-id="26338"></path><path d="M208.03 621.62m-75.09 0a75.09 75.09 0 1 0 150.18 0 75.09 75.09 0 1 0-150.18 0Z" fill="#FCD4C4" p-id="26339"></path><path d="M208.03 621.62m-74.03 0a74.03 74.03 0 1 0 148.06 0 74.03 74.03 0 1 0-148.06 0Z" fill="#FCD3C3" p-id="26340"></path><path d="M208.03 621.62m-72.97 0a72.97 72.97 0 1 0 145.94 0 72.97 72.97 0 1 0-145.94 0Z" fill="#FCD2C2" p-id="26341"></path><path d="M208.03 621.62m-71.92 0a71.92 71.92 0 1 0 143.84 0 71.92 71.92 0 1 0-143.84 0Z" fill="#FCD2C1" p-id="26342"></path><path d="M208.03 621.62m-70.86 0a70.86 70.86 0 1 0 141.72 0 70.86 70.86 0 1 0-141.72 0Z" fill="#FCD1C0" p-id="26343"></path><path d="M208.03 621.62m-69.8 0a69.8 69.8 0 1 0 139.6 0 69.8 69.8 0 1 0-139.6 0Z" fill="#FCD0BF" p-id="26344"></path><path d="M208.03 621.62m-68.74 0a68.74 68.74 0 1 0 137.48 0 68.74 68.74 0 1 0-137.48 0Z" fill="#FCCFBE" p-id="26345"></path><path d="M208.03 621.62m-67.69 0a67.69 67.69 0 1 0 135.38 0 67.69 67.69 0 1 0-135.38 0Z" fill="#FCCEBD" p-id="26346"></path><path d="M208.03 621.62m-66.63 0a66.63 66.63 0 1 0 133.26 0 66.63 66.63 0 1 0-133.26 0Z" fill="#FCCEBC" p-id="26347"></path><path d="M208.03 621.62m-65.57 0a65.57 65.57 0 1 0 131.14 0 65.57 65.57 0 1 0-131.14 0Z" fill="#FCCDBB" p-id="26348"></path><path d="M208.03 621.62m-64.51 0a64.51 64.51 0 1 0 129.02 0 64.51 64.51 0 1 0-129.02 0Z" fill="#FCCCBA" p-id="26349"></path><path d="M208.03 621.62m-63.46 0a63.46 63.46 0 1 0 126.92 0 63.46 63.46 0 1 0-126.92 0Z" fill="#FCCBB9" p-id="26350"></path><path d="M208.03 621.62m-62.4 0a62.4 62.4 0 1 0 124.8 0 62.4 62.4 0 1 0-124.8 0Z" fill="#FCCAB8" p-id="26351"></path><path d="M208.03 621.62m-61.34 0a61.34 61.34 0 1 0 122.68 0 61.34 61.34 0 1 0-122.68 0Z" fill="#FCCAB7" p-id="26352"></path><path d="M208.03 621.62m-60.28 0a60.28 60.28 0 1 0 120.56 0 60.28 60.28 0 1 0-120.56 0Z" fill="#FCC9B6" p-id="26353"></path><path d="M208.03 621.62m-59.23 0a59.23 59.23 0 1 0 118.46 0 59.23 59.23 0 1 0-118.46 0Z" fill="#FCC8B5" p-id="26354"></path><path d="M208.03 621.62m-58.17 0a58.17 58.17 0 1 0 116.34 0 58.17 58.17 0 1 0-116.34 0Z" fill="#FCC7B4" p-id="26355"></path><path d="M208.03 621.62m-57.11 0a57.11 57.11 0 1 0 114.22 0 57.11 57.11 0 1 0-114.22 0Z" fill="#FCC6B3" p-id="26356"></path><path d="M208.03 621.62m-56.05 0a56.05 56.05 0 1 0 112.1 0 56.05 56.05 0 1 0-112.1 0Z" fill="#FCC6B2" p-id="26357"></path><path d="M208.03 621.62m-54.99 0a54.99 54.99 0 1 0 109.98 0 54.99 54.99 0 1 0-109.98 0Z" fill="#FCC5B1" p-id="26358"></path><path d="M208.03 621.62m-53.94 0a53.94 53.94 0 1 0 107.88 0 53.94 53.94 0 1 0-107.88 0Z" fill="#FCC4B0" p-id="26359"></path><path d="M208.03 621.62m-52.88 0a52.88 52.88 0 1 0 105.76 0 52.88 52.88 0 1 0-105.76 0Z" fill="#FBC3AE" p-id="26360"></path><path d="M208.03 621.62m-51.82 0a51.82 51.82 0 1 0 103.64 0 51.82 51.82 0 1 0-103.64 0Z" fill="#FBC2AD" p-id="26361"></path><path d="M208.03 621.62m-50.76 0a50.76 50.76 0 1 0 101.52 0 50.76 50.76 0 1 0-101.52 0Z" fill="#FBC2AC" p-id="26362"></path><path d="M208.03 621.62m-49.71 0a49.71 49.71 0 1 0 99.42 0 49.71 49.71 0 1 0-99.42 0Z" fill="#FBC1AB" p-id="26363"></path><path d="M208.03 621.62m-48.65 0a48.65 48.65 0 1 0 97.3 0 48.65 48.65 0 1 0-97.3 0Z" fill="#FBC0AA" p-id="26364"></path><path d="M208.03 621.62m-47.59 0a47.59 47.59 0 1 0 95.18 0 47.59 47.59 0 1 0-95.18 0Z" fill="#FBBFA9" p-id="26365"></path><path d="M208.03 621.62m-46.53 0a46.53 46.53 0 1 0 93.06 0 46.53 46.53 0 1 0-93.06 0Z" fill="#FBBEA8" p-id="26366"></path><path d="M208.03 621.62m-45.48 0a45.48 45.48 0 1 0 90.96 0 45.48 45.48 0 1 0-90.96 0Z" fill="#FBBEA7" p-id="26367"></path><path d="M208.03 621.62m-44.42 0a44.42 44.42 0 1 0 88.84 0 44.42 44.42 0 1 0-88.84 0Z" fill="#FBBDA6" p-id="26368"></path><path d="M208.03 621.62m-43.36 0a43.36 43.36 0 1 0 86.72 0 43.36 43.36 0 1 0-86.72 0Z" fill="#FBBCA5" p-id="26369"></path><path d="M208.03 621.62m-42.3 0a42.3 42.3 0 1 0 84.6 0 42.3 42.3 0 1 0-84.6 0Z" fill="#FBBBA4" p-id="26370"></path><path d="M208.03 621.62m-41.25 0a41.25 41.25 0 1 0 82.5 0 41.25 41.25 0 1 0-82.5 0Z" fill="#FBBAA3" p-id="26371"></path><path d="M208.03 621.62m-40.19 0a40.19 40.19 0 1 0 80.38 0 40.19 40.19 0 1 0-80.38 0Z" fill="#FBBAA2" p-id="26372"></path><path d="M208.03 621.62m-39.13 0a39.13 39.13 0 1 0 78.26 0 39.13 39.13 0 1 0-78.26 0Z" fill="#FBB9A1" p-id="26373"></path><path d="M208.03 621.62m-38.07 0a38.07 38.07 0 1 0 76.14 0 38.07 38.07 0 1 0-76.14 0Z" fill="#FBB8A0" p-id="26374"></path><path d="M208.03 621.62m-37.02 0a37.02 37.02 0 1 0 74.04 0 37.02 37.02 0 1 0-74.04 0Z" fill="#FBB79F" p-id="26375"></path><path d="M208.03 621.62m-35.96 0a35.96 35.96 0 1 0 71.92 0 35.96 35.96 0 1 0-71.92 0Z" fill="#FBB69E" p-id="26376"></path><path d="M208.03 621.62m-34.9 0a34.9 34.9 0 1 0 69.8 0 34.9 34.9 0 1 0-69.8 0Z" fill="#FBB69D" p-id="26377"></path><path d="M208.03 621.62m-33.84 0a33.84 33.84 0 1 0 67.68 0 33.84 33.84 0 1 0-67.68 0Z" fill="#FBB59C" p-id="26378"></path><path d="M208.03 621.62m-32.79 0a32.79 32.79 0 1 0 65.58 0 32.79 32.79 0 1 0-65.58 0Z" fill="#FBB49B" p-id="26379"></path><path d="M208.03 621.62m-31.73 0a31.73 31.73 0 1 0 63.46 0 31.73 31.73 0 1 0-63.46 0Z" fill="#FBB39A" p-id="26380"></path><path d="M208.03 621.62m-30.67 0a30.67 30.67 0 1 0 61.34 0 30.67 30.67 0 1 0-61.34 0Z" fill="#FBB299" p-id="26381"></path><path d="M208.03 621.62m-29.61 0a29.61 29.61 0 1 0 59.22 0 29.61 29.61 0 1 0-59.22 0Z" fill="#FBB298" p-id="26382"></path><path d="M208.03 621.62m-28.55 0a28.55 28.55 0 1 0 57.1 0 28.55 28.55 0 1 0-57.1 0Z" fill="#FBB197" p-id="26383"></path><path d="M208.03 621.62m-27.5 0a27.5 27.5 0 1 0 55 0 27.5 27.5 0 1 0-55 0Z" fill="#FBB096" p-id="26384"></path><path d="M208.03 621.62m-26.44 0a26.44 26.44 0 1 0 52.88 0 26.44 26.44 0 1 0-52.88 0Z" fill="#FBAF95" p-id="26385"></path><path d="M208.03 621.62m-25.38 0a25.38 25.38 0 1 0 50.76 0 25.38 25.38 0 1 0-50.76 0Z" fill="#FBAE94" p-id="26386"></path><path d="M208.03 621.62m-24.32 0a24.32 24.32 0 1 0 48.64 0 24.32 24.32 0 1 0-48.64 0Z" fill="#FBAE93" p-id="26387"></path><path d="M208.03 621.62m-23.27 0a23.27 23.27 0 1 0 46.54 0 23.27 23.27 0 1 0-46.54 0Z" fill="#FBAD92" p-id="26388"></path><path d="M208.03 621.62m-22.21 0a22.21 22.21 0 1 0 44.42 0 22.21 22.21 0 1 0-44.42 0Z" fill="#FBAC91" p-id="26389"></path><path d="M208.03 621.62m-21.15 0a21.15 21.15 0 1 0 42.3 0 21.15 21.15 0 1 0-42.3 0Z" fill="#FBAB90" p-id="26390"></path><path d="M208.03 621.62m-20.09 0a20.09 20.09 0 1 0 40.18 0 20.09 20.09 0 1 0-40.18 0Z" fill="#FBAA8F" p-id="26391"></path><path d="M208.03 621.62m-19.04 0a19.04 19.04 0 1 0 38.08 0 19.04 19.04 0 1 0-38.08 0Z" fill="#FBAA8E" p-id="26392"></path><path d="M208.03 621.62m-17.98 0a17.98 17.98 0 1 0 35.96 0 17.98 17.98 0 1 0-35.96 0Z" fill="#FAA98D" p-id="26393"></path><path d="M208.03 621.62m-16.92 0a16.92 16.92 0 1 0 33.84 0 16.92 16.92 0 1 0-33.84 0Z" fill="#FAA88C" p-id="26394"></path><path d="M208.03 621.62m-15.86 0a15.86 15.86 0 1 0 31.72 0 15.86 15.86 0 1 0-31.72 0Z" fill="#FAA78B" p-id="26395"></path><path d="M208.03 621.62m-14.81 0a14.81 14.81 0 1 0 29.62 0 14.81 14.81 0 1 0-29.62 0Z" fill="#FAA68A" p-id="26396"></path><path d="M208.03 621.62m-13.75 0a13.75 13.75 0 1 0 27.5 0 13.75 13.75 0 1 0-27.5 0Z" fill="#FAA689" p-id="26397"></path><path d="M208.03 621.62m-12.69 0a12.69 12.69 0 1 0 25.38 0 12.69 12.69 0 1 0-25.38 0Z" fill="#FAA588" p-id="26398"></path><path d="M208.03 621.62m-11.63 0a11.63 11.63 0 1 0 23.26 0 11.63 11.63 0 1 0-23.26 0Z" fill="#FAA487" p-id="26399"></path><path d="M208.03 621.62m-10.58 0a10.58 10.58 0 1 0 21.16 0 10.58 10.58 0 1 0-21.16 0Z" fill="#FAA386" p-id="26400"></path><path d="M208.03 621.62m-9.52 0a9.52 9.52 0 1 0 19.04 0 9.52 9.52 0 1 0-19.04 0Z" fill="#FAA285" p-id="26401"></path><path d="M208.03 621.62m-8.46 0a8.46 8.46 0 1 0 16.92 0 8.46 8.46 0 1 0-16.92 0Z" fill="#FAA284" p-id="26402"></path><path d="M208.03 621.62m-7.4 0a7.4 7.4 0 1 0 14.8 0 7.4 7.4 0 1 0-14.8 0Z" fill="#FAA183" p-id="26403"></path><path d="M208.03 621.62m-6.35 0a6.35 6.35 0 1 0 12.7 0 6.35 6.35 0 1 0-12.7 0Z" fill="#FAA082" p-id="26404"></path><path d="M208.03 621.62m-5.29 0a5.29 5.29 0 1 0 10.58 0 5.29 5.29 0 1 0-10.58 0Z" fill="#FA9F81" p-id="26405"></path><path d="M208.03 621.62m-4.23 0a4.23 4.23 0 1 0 8.46 0 4.23 4.23 0 1 0-8.46 0Z" fill="#FA9E80" p-id="26406"></path><path d="M208.03 621.62m-3.17 0a3.17 3.17 0 1 0 6.34 0 3.17 3.17 0 1 0-6.34 0Z" fill="#FA9E7F" p-id="26407"></path><path d="M208.03 621.62m-2.12 0a2.12 2.12 0 1 0 4.24 0 2.12 2.12 0 1 0-4.24 0Z" fill="#FA9D7E" p-id="26408"></path><path d="M208.03 621.62m-1.06 0a1.06 1.06 0 1 0 2.12 0 1.06 1.06 0 1 0-2.12 0Z" fill="#FA9C7D" p-id="26409"></path><path d="M695.22 509.63h226.93v223.98H695.22z" fill="#FDECE2" p-id="26410"></path><path d="M808.68 621.62m-112.73 0a112.73 112.73 0 1 0 225.46 0 112.73 112.73 0 1 0-225.46 0Z" fill="#FDECE2" p-id="26411"></path><path d="M808.68 621.62m-111.62 0a111.62 111.62 0 1 0 223.24 0 111.62 111.62 0 1 0-223.24 0Z" fill="#FDEBE1" p-id="26412"></path><path d="M808.68 621.62m-110.5 0a110.5 110.5 0 1 0 221 0 110.5 110.5 0 1 0-221 0Z" fill="#FDEAE0" p-id="26413"></path><path d="M808.68 621.62m-109.38 0a109.38 109.38 0 1 0 218.76 0 109.38 109.38 0 1 0-218.76 0Z" fill="#FDEADF" p-id="26414"></path><path d="M808.68 621.62m-108.27 0a108.27 108.27 0 1 0 216.54 0 108.27 108.27 0 1 0-216.54 0Z" fill="#FDE9DE" p-id="26415"></path><path d="M808.68 621.62m-107.15 0a107.15 107.15 0 1 0 214.3 0 107.15 107.15 0 1 0-214.3 0Z" fill="#FDE8DD" p-id="26416"></path><path d="M808.68 621.62m-106.03 0a106.03 106.03 0 1 0 212.06 0 106.03 106.03 0 1 0-212.06 0Z" fill="#FDE7DC" p-id="26417"></path><path d="M808.68 621.62m-104.92 0a104.92 104.92 0 1 0 209.84 0 104.92 104.92 0 1 0-209.84 0Z" fill="#FDE6DB" p-id="26418"></path><path d="M808.68 621.62m-103.8 0a103.8 103.8 0 1 0 207.6 0 103.8 103.8 0 1 0-207.6 0Z" fill="#FDE6DA" p-id="26419"></path><path d="M808.68 621.62m-102.69 0a102.69 102.69 0 1 0 205.38 0 102.69 102.69 0 1 0-205.38 0Z" fill="#FDE5D9" p-id="26420"></path><path d="M808.68 621.62m-101.57 0a101.57 101.57 0 1 0 203.14 0 101.57 101.57 0 1 0-203.14 0Z" fill="#FDE4D8" p-id="26421"></path><path d="M808.68 621.62m-100.45 0a100.45 100.45 0 1 0 200.9 0 100.45 100.45 0 1 0-200.9 0Z" fill="#FDE3D7" p-id="26422"></path><path d="M808.68 621.62m-99.34 0a99.34 99.34 0 1 0 198.68 0 99.34 99.34 0 1 0-198.68 0Z" fill="#FDE2D6" p-id="26423"></path><path d="M808.68 621.62m-98.22 0a98.22 98.22 0 1 0 196.44 0 98.22 98.22 0 1 0-196.44 0Z" fill="#FDE2D5" p-id="26424"></path><path d="M808.68 621.62m-97.11 0a97.11 97.11 0 1 0 194.22 0 97.11 97.11 0 1 0-194.22 0Z" fill="#FDE1D4" p-id="26425"></path><path d="M808.68 621.62m-95.99 0a95.99 95.99 0 1 0 191.98 0 95.99 95.99 0 1 0-191.98 0Z" fill="#FDE0D3" p-id="26426"></path><path d="M808.68 621.62m-94.87 0a94.87 94.87 0 1 0 189.74 0 94.87 94.87 0 1 0-189.74 0Z" fill="#FDDFD2" p-id="26427"></path><path d="M808.68 621.62m-93.76 0a93.76 93.76 0 1 0 187.52 0 93.76 93.76 0 1 0-187.52 0Z" fill="#FCDED1" p-id="26428"></path><path d="M808.68 621.62m-92.64 0a92.64 92.64 0 1 0 185.28 0 92.64 92.64 0 1 0-185.28 0Z" fill="#FCDED0" p-id="26429"></path><path d="M808.68 621.62m-91.52 0a91.52 91.52 0 1 0 183.04 0 91.52 91.52 0 1 0-183.04 0Z" fill="#FCDDCF" p-id="26430"></path><path d="M808.68 621.62m-90.41 0a90.41 90.41 0 1 0 180.82 0 90.41 90.41 0 1 0-180.82 0Z" fill="#FCDCCE" p-id="26431"></path><path d="M808.68 621.62m-89.29 0a89.29 89.29 0 1 0 178.58 0 89.29 89.29 0 1 0-178.58 0Z" fill="#FCDBCD" p-id="26432"></path><path d="M808.68 621.62m-88.18 0a88.18 88.18 0 1 0 176.36 0 88.18 88.18 0 1 0-176.36 0Z" fill="#FCDACC" p-id="26433"></path><path d="M808.68 621.62m-87.06 0a87.06 87.06 0 1 0 174.12 0 87.06 87.06 0 1 0-174.12 0Z" fill="#FCDACB" p-id="26434"></path><path d="M808.68 621.62m-85.94 0a85.94 85.94 0 1 0 171.88 0 85.94 85.94 0 1 0-171.88 0Z" fill="#FCD9CA" p-id="26435"></path><path d="M808.68 621.62m-84.83 0a84.83 84.83 0 1 0 169.66 0 84.83 84.83 0 1 0-169.66 0Z" fill="#FCD8C9" p-id="26436"></path><path d="M808.68 621.62m-83.71 0a83.71 83.71 0 1 0 167.42 0 83.71 83.71 0 1 0-167.42 0Z" fill="#FCD7C8" p-id="26437"></path><path d="M808.68 621.62m-82.6 0a82.6 82.6 0 1 0 165.2 0 82.6 82.6 0 1 0-165.2 0Z" fill="#FCD6C7" p-id="26438"></path><path d="M808.68 621.62m-81.48 0a81.48 81.48 0 1 0 162.96 0 81.48 81.48 0 1 0-162.96 0Z" fill="#FCD6C6" p-id="26439"></path><path d="M808.68 621.62m-80.36 0a80.36 80.36 0 1 0 160.72 0 80.36 80.36 0 1 0-160.72 0Z" fill="#FCD5C5" p-id="26440"></path><path d="M808.68 621.62m-79.25 0a79.25 79.25 0 1 0 158.5 0 79.25 79.25 0 1 0-158.5 0Z" fill="#FCD4C4" p-id="26441"></path><path d="M808.68 621.62m-78.13 0a78.13 78.13 0 1 0 156.26 0 78.13 78.13 0 1 0-156.26 0Z" fill="#FCD3C3" p-id="26442"></path><path d="M808.68 621.62m-77.01 0a77.01 77.01 0 1 0 154.02 0 77.01 77.01 0 1 0-154.02 0Z" fill="#FCD2C2" p-id="26443"></path><path d="M808.68 621.62m-75.9 0a75.9 75.9 0 1 0 151.8 0 75.9 75.9 0 1 0-151.8 0Z" fill="#FCD2C1" p-id="26444"></path><path d="M808.68 621.62m-74.78 0a74.78 74.78 0 1 0 149.56 0 74.78 74.78 0 1 0-149.56 0Z" fill="#FCD1C0" p-id="26445"></path><path d="M808.68 621.62m-73.67 0a73.67 73.67 0 1 0 147.34 0 73.67 73.67 0 1 0-147.34 0Z" fill="#FCD0BF" p-id="26446"></path><path d="M808.68 621.62m-72.55 0a72.55 72.55 0 1 0 145.1 0 72.55 72.55 0 1 0-145.1 0Z" fill="#FCCFBE" p-id="26447"></path><path d="M808.68 621.62m-71.43 0a71.43 71.43 0 1 0 142.86 0 71.43 71.43 0 1 0-142.86 0Z" fill="#FCCEBD" p-id="26448"></path><path d="M808.68 621.62m-70.32 0a70.32 70.32 0 1 0 140.64 0 70.32 70.32 0 1 0-140.64 0Z" fill="#FCCEBC" p-id="26449"></path><path d="M808.68 621.62m-69.2 0a69.2 69.2 0 1 0 138.4 0 69.2 69.2 0 1 0-138.4 0Z" fill="#FCCDBB" p-id="26450"></path><path d="M808.68 621.62m-68.09 0a68.09 68.09 0 1 0 136.18 0 68.09 68.09 0 1 0-136.18 0Z" fill="#FCCCBA" p-id="26451"></path><path d="M808.68 621.62m-66.97 0a66.97 66.97 0 1 0 133.94 0 66.97 66.97 0 1 0-133.94 0Z" fill="#FCCBB9" p-id="26452"></path><path d="M808.68 621.62m-65.85 0a65.85 65.85 0 1 0 131.7 0 65.85 65.85 0 1 0-131.7 0Z" fill="#FCCAB8" p-id="26453"></path><path d="M808.68 621.62m-64.74 0a64.74 64.74 0 1 0 129.48 0 64.74 64.74 0 1 0-129.48 0Z" fill="#FCCAB7" p-id="26454"></path><path d="M808.68 621.62m-63.62 0a63.62 63.62 0 1 0 127.24 0 63.62 63.62 0 1 0-127.24 0Z" fill="#FCC9B6" p-id="26455"></path><path d="M808.68 621.62m-62.5 0a62.5 62.5 0 1 0 125 0 62.5 62.5 0 1 0-125 0Z" fill="#FCC8B5" p-id="26456"></path><path d="M808.68 621.62m-61.39 0a61.39 61.39 0 1 0 122.78 0 61.39 61.39 0 1 0-122.78 0Z" fill="#FCC7B4" p-id="26457"></path><path d="M808.68 621.62m-60.27 0a60.27 60.27 0 1 0 120.54 0 60.27 60.27 0 1 0-120.54 0Z" fill="#FCC6B3" p-id="26458"></path><path d="M808.68 621.62m-59.16 0a59.16 59.16 0 1 0 118.32 0 59.16 59.16 0 1 0-118.32 0Z" fill="#FCC6B2" p-id="26459"></path><path d="M808.68 621.62m-58.04 0a58.04 58.04 0 1 0 116.08 0 58.04 58.04 0 1 0-116.08 0Z" fill="#FCC5B1" p-id="26460"></path><path d="M808.68 621.62m-56.92 0a56.92 56.92 0 1 0 113.84 0 56.92 56.92 0 1 0-113.84 0Z" fill="#FCC4B0" p-id="26461"></path><path d="M808.68 621.62m-55.81 0a55.81 55.81 0 1 0 111.62 0 55.81 55.81 0 1 0-111.62 0Z" fill="#FBC3AE" p-id="26462"></path><path d="M808.68 621.62m-54.69 0a54.69 54.69 0 1 0 109.38 0 54.69 54.69 0 1 0-109.38 0Z" fill="#FBC2AD" p-id="26463"></path><path d="M808.68 621.62m-53.58 0a53.58 53.58 0 1 0 107.16 0 53.58 53.58 0 1 0-107.16 0Z" fill="#FBC2AC" p-id="26464"></path><path d="M808.68 621.62m-52.46 0a52.46 52.46 0 1 0 104.92 0 52.46 52.46 0 1 0-104.92 0Z" fill="#FBC1AB" p-id="26465"></path><path d="M808.68 621.62m-51.34 0a51.34 51.34 0 1 0 102.68 0 51.34 51.34 0 1 0-102.68 0Z" fill="#FBC0AA" p-id="26466"></path><path d="M808.68 621.62m-50.23 0a50.23 50.23 0 1 0 100.46 0 50.23 50.23 0 1 0-100.46 0Z" fill="#FBBFA9" p-id="26467"></path><path d="M808.68 621.62m-49.11 0a49.11 49.11 0 1 0 98.22 0 49.11 49.11 0 1 0-98.22 0Z" fill="#FBBEA8" p-id="26468"></path><path d="M808.68 621.62m-47.99 0a47.99 47.99 0 1 0 95.98 0 47.99 47.99 0 1 0-95.98 0Z" fill="#FBBEA7" p-id="26469"></path><path d="M808.68 621.62m-46.88 0a46.88 46.88 0 1 0 93.76 0 46.88 46.88 0 1 0-93.76 0Z" fill="#FBBDA6" p-id="26470"></path><path d="M808.68 621.62m-45.76 0a45.76 45.76 0 1 0 91.52 0 45.76 45.76 0 1 0-91.52 0Z" fill="#FBBCA5" p-id="26471"></path><path d="M808.68 621.62m-44.65 0a44.65 44.65 0 1 0 89.3 0 44.65 44.65 0 1 0-89.3 0Z" fill="#FBBBA4" p-id="26472"></path><path d="M808.68 621.62m-43.53 0a43.53 43.53 0 1 0 87.06 0 43.53 43.53 0 1 0-87.06 0Z" fill="#FBBAA3" p-id="26473"></path><path d="M808.68 621.62m-42.41 0a42.41 42.41 0 1 0 84.82 0 42.41 42.41 0 1 0-84.82 0Z" fill="#FBBAA2" p-id="26474"></path><path d="M808.68 621.62m-41.3 0a41.3 41.3 0 1 0 82.6 0 41.3 41.3 0 1 0-82.6 0Z" fill="#FBB9A1" p-id="26475"></path><path d="M808.68 621.62m-40.18 0a40.18 40.18 0 1 0 80.36 0 40.18 40.18 0 1 0-80.36 0Z" fill="#FBB8A0" p-id="26476"></path><path d="M808.68 621.62m-39.07 0a39.07 39.07 0 1 0 78.14 0 39.07 39.07 0 1 0-78.14 0Z" fill="#FBB79F" p-id="26477"></path><path d="M808.68 621.62m-37.95 0a37.95 37.95 0 1 0 75.9 0 37.95 37.95 0 1 0-75.9 0Z" fill="#FBB69E" p-id="26478"></path><path d="M808.68 621.62m-36.83 0a36.83 36.83 0 1 0 73.66 0 36.83 36.83 0 1 0-73.66 0Z" fill="#FBB69D" p-id="26479"></path><path d="M808.68 621.62m-35.72 0a35.72 35.72 0 1 0 71.44 0 35.72 35.72 0 1 0-71.44 0Z" fill="#FBB59C" p-id="26480"></path><path d="M808.68 621.62m-34.6 0a34.6 34.6 0 1 0 69.2 0 34.6 34.6 0 1 0-69.2 0Z" fill="#FBB49B" p-id="26481"></path><path d="M808.68 621.62m-33.48 0a33.48 33.48 0 1 0 66.96 0 33.48 33.48 0 1 0-66.96 0Z" fill="#FBB39A" p-id="26482"></path><path d="M808.68 621.62m-32.37 0a32.37 32.37 0 1 0 64.74 0 32.37 32.37 0 1 0-64.74 0Z" fill="#FBB299" p-id="26483"></path><path d="M808.68 621.62m-31.25 0a31.25 31.25 0 1 0 62.5 0 31.25 31.25 0 1 0-62.5 0Z" fill="#FBB298" p-id="26484"></path><path d="M808.68 621.62m-30.14 0a30.14 30.14 0 1 0 60.28 0 30.14 30.14 0 1 0-60.28 0Z" fill="#FBB197" p-id="26485"></path><path d="M808.68 621.62m-29.02 0a29.02 29.02 0 1 0 58.04 0 29.02 29.02 0 1 0-58.04 0Z" fill="#FBB096" p-id="26486"></path><path d="M808.68 621.62m-27.9 0a27.9 27.9 0 1 0 55.8 0 27.9 27.9 0 1 0-55.8 0Z" fill="#FBAF95" p-id="26487"></path><path d="M808.68 621.62m-26.79 0a26.79 26.79 0 1 0 53.58 0 26.79 26.79 0 1 0-53.58 0Z" fill="#FBAE94" p-id="26488"></path><path d="M808.68 621.62m-25.67 0a25.67 25.67 0 1 0 51.34 0 25.67 25.67 0 1 0-51.34 0Z" fill="#FBAE93" p-id="26489"></path><path d="M808.68 621.62m-24.56 0a24.56 24.56 0 1 0 49.12 0 24.56 24.56 0 1 0-49.12 0Z" fill="#FBAD92" p-id="26490"></path><path d="M808.68 621.62m-23.44 0a23.44 23.44 0 1 0 46.88 0 23.44 23.44 0 1 0-46.88 0Z" fill="#FBAC91" p-id="26491"></path><path d="M808.68 621.62m-22.32 0a22.32 22.32 0 1 0 44.64 0 22.32 22.32 0 1 0-44.64 0Z" fill="#FBAB90" p-id="26492"></path><path d="M808.68 621.62m-21.21 0a21.21 21.21 0 1 0 42.42 0 21.21 21.21 0 1 0-42.42 0Z" fill="#FBAA8F" p-id="26493"></path><path d="M808.68 621.62m-20.09 0a20.09 20.09 0 1 0 40.18 0 20.09 20.09 0 1 0-40.18 0Z" fill="#FBAA8E" p-id="26494"></path><path d="M808.68 621.62m-18.97 0a18.97 18.97 0 1 0 37.94 0 18.97 18.97 0 1 0-37.94 0Z" fill="#FAA98D" p-id="26495"></path><path d="M808.68 621.62m-17.86 0a17.86 17.86 0 1 0 35.72 0 17.86 17.86 0 1 0-35.72 0Z" fill="#FAA88C" p-id="26496"></path><path d="M808.68 621.62m-16.74 0a16.74 16.74 0 1 0 33.48 0 16.74 16.74 0 1 0-33.48 0Z" fill="#FAA78B" p-id="26497"></path><path d="M808.68 621.62m-15.63 0a15.63 15.63 0 1 0 31.26 0 15.63 15.63 0 1 0-31.26 0Z" fill="#FAA68A" p-id="26498"></path><path d="M808.68 621.62m-14.51 0a14.51 14.51 0 1 0 29.02 0 14.51 14.51 0 1 0-29.02 0Z" fill="#FAA689" p-id="26499"></path><path d="M808.68 621.62m-13.39 0a13.39 13.39 0 1 0 26.78 0 13.39 13.39 0 1 0-26.78 0Z" fill="#FAA588" p-id="26500"></path><path d="M808.68 621.62m-12.28 0a12.28 12.28 0 1 0 24.56 0 12.28 12.28 0 1 0-24.56 0Z" fill="#FAA487" p-id="26501"></path><path d="M808.68 621.62m-11.16 0a11.16 11.16 0 1 0 22.32 0 11.16 11.16 0 1 0-22.32 0Z" fill="#FAA386" p-id="26502"></path><path d="M808.68 621.62m-10.05 0a10.05 10.05 0 1 0 20.1 0 10.05 10.05 0 1 0-20.1 0Z" fill="#FAA285" p-id="26503"></path><path d="M808.68 621.62m-8.93 0a8.93 8.93 0 1 0 17.86 0 8.93 8.93 0 1 0-17.86 0Z" fill="#FAA284" p-id="26504"></path><path d="M808.68 621.62m-7.81 0a7.81 7.81 0 1 0 15.62 0 7.81 7.81 0 1 0-15.62 0Z" fill="#FAA183" p-id="26505"></path><path d="M808.68 621.62m-6.7 0a6.7 6.7 0 1 0 13.4 0 6.7 6.7 0 1 0-13.4 0Z" fill="#FAA082" p-id="26506"></path><path d="M808.68 621.62m-5.58 0a5.58 5.58 0 1 0 11.16 0 5.58 5.58 0 1 0-11.16 0Z" fill="#FA9F81" p-id="26507"></path><path d="M808.68 621.62m-4.46 0a4.46 4.46 0 1 0 8.92 0 4.46 4.46 0 1 0-8.92 0Z" fill="#FA9E80" p-id="26508"></path><path d="M808.68 621.62m-3.35 0a3.35 3.35 0 1 0 6.7 0 3.35 3.35 0 1 0-6.7 0Z" fill="#FA9E7F" p-id="26509"></path><path d="M808.68 621.62m-2.23 0a2.23 2.23 0 1 0 4.46 0 2.23 2.23 0 1 0-4.46 0Z" fill="#FA9D7E" p-id="26510"></path><path d="M808.68 621.62m-1.12 0a1.12 1.12 0 1 0 2.24 0 1.12 1.12 0 1 0-2.24 0Z" fill="#FA9C7D" p-id="26511"></path><path d="M574.32 562.19c-10.09 0-18.26-8.18-18.26-18.26v-40.19c0-10.09 8.18-18.26 18.26-18.26 10.09 0 18.26 8.18 18.26 18.26v40.19c0 10.09-8.18 18.26-18.26 18.26zM449.5 562.19c-10.09 0-18.26-8.18-18.26-18.26v-40.19c0-10.09 8.18-18.26 18.26-18.26 10.09 0 18.26 8.18 18.26 18.26v40.19c0 10.09-8.17 18.26-18.26 18.26z" fill="#D39A7B" p-id="26512"></path><path d="M586.22 646.26c3.52 0 6.37 2.89 6.3 6.41-1.58 88.71-35.8 159.6-77.78 159.6-41.98 0-76.2-70.89-77.78-159.6a6.304 6.304 0 0 1 6.3-6.41h142.96z" fill="#BD202A" p-id="26513"></path><path d="M514.75 812.28c22.34 0 42.48-20.08 56.68-52.23-7.71-21.77-30.17-37.53-56.68-37.53-26.51 0-48.96 15.76-56.68 37.53 14.19 32.15 34.34 52.23 56.68 52.23z" fill="#F1987A" p-id="26514"></path><path d="M660.98 411.74a5 5 0 0 1-3.97-1.96c-36.62-47.86-83.81-18.21-85.8-16.92-2.32 1.5-5.41 0.84-6.91-1.48a5 5 0 0 1 1.46-6.91c0.58-0.38 14.34-9.22 33.43-11.34 17.82-1.98 43.69 1.72 65.76 30.57a5.002 5.002 0 0 1-3.97 8.04zM356.26 411.98a5 5 0 0 1-3.86-8.17c41.21-50.34 79.17-27.66 97.4-16.76l0.85 0.51a4.998 4.998 0 0 1 1.73 6.86 4.998 4.998 0 0 1-6.86 1.73l-0.86-0.51c-18.25-10.9-48.79-29.15-84.54 14.51a4.954 4.954 0 0 1-3.86 1.83z" fill="#323333" p-id="26515"></path></svg>